<svg version="1.1" id="Layer_1" xmlns="http://www.w3.org/2000/svg" xmlns:xlink="http://www.w3.org/1999/xlink" x="0px" y="0px"
	 width="100%" viewBox="0 0 300 300" enable-background="new 0 0 300 300" xml:space="preserve">
<path fill="#FFFFFF" opacity="1.000000" stroke="none" 
	d="
M175.000000,301.000000 
	C116.666679,301.000000 58.833355,301.000000 1.000023,301.000000 
	C1.000015,201.000031 1.000015,101.000053 1.000008,1.000064 
	C100.999947,1.000042 200.999893,1.000042 300.999878,1.000021 
	C300.999939,100.999939 300.999939,200.999878 300.999969,300.999908 
	C259.166656,301.000000 217.333328,301.000000 175.000000,301.000000 
M103.353226,136.984482 
	C102.912735,136.993683 102.472237,137.002869 101.581383,136.771011 
	C101.382042,136.499619 101.182709,136.228226 100.983025,135.165771 
	C101.042908,134.115784 101.102798,133.065781 101.706215,132.229706 
	C102.128189,131.823975 102.550163,131.418243 102.972130,131.012512 
	C102.304657,130.345245 101.637177,129.677979 100.251083,128.565872 
	C94.844734,128.381683 89.438385,128.197479 83.583626,127.765320 
	C83.382690,127.493523 83.181755,127.221718 82.990723,126.070320 
	C82.995827,125.578140 82.969292,125.083260 83.011124,124.594223 
	C83.306465,121.141418 83.116135,118.755875 78.280121,118.814514 
	C73.505272,118.872414 73.895287,121.479637 73.993767,124.511322 
	C74.020386,125.330948 74.006096,126.151909 73.767929,127.415276 
	C73.501007,127.614845 73.234093,127.814407 72.036949,128.007645 
	C68.244743,128.004074 64.444931,128.147522 60.662689,127.951637 
	C57.481239,127.786873 55.818626,128.435287 55.880047,132.210678 
	C55.937351,135.733170 56.739445,137.600571 60.587261,137.009171 
	C64.109032,136.467880 65.427032,138.096375 65.016571,141.506714 
	C64.879753,142.643478 65.008011,143.812164 64.771095,145.410873 
	C64.503441,145.611786 64.235779,145.812698 63.037766,146.010864 
	C58.716877,146.007355 54.393993,146.083298 50.075737,145.974930 
	C46.690338,145.889954 46.913673,148.142471 47.003227,150.358398 
	C47.085876,152.403427 46.381935,155.419830 49.794334,154.911911 
	C56.232338,153.953644 56.437458,157.637634 56.029045,162.263184 
	C55.839760,164.406937 55.849041,166.593796 56.031254,168.738770 
	C56.304550,171.955902 55.114067,173.484039 51.790844,172.995697 
	C48.163940,172.462723 46.425117,173.830780 46.987564,177.650146 
	C47.449322,180.785767 46.270752,182.519577 42.888386,181.982468 
	C38.796341,181.332687 37.856342,183.157166 37.864159,187.020370 
	C37.872467,191.123672 40.067963,191.038422 42.960278,191.031006 
	C63.733788,190.977692 84.507568,191.024658 105.281013,190.958817 
	C106.852997,190.953827 108.422997,190.323517 110.219139,190.435257 
	C110.489716,190.627151 110.760292,190.819046 110.648582,191.653641 
	C109.574203,193.033554 107.304047,195.193787 107.614723,195.669876 
	C110.088837,199.461273 110.690819,203.284927 109.273193,207.537888 
	C109.192276,207.780670 109.863625,208.597870 110.194824,208.603928 
	C113.277809,208.660339 116.746315,210.676544 119.925850,207.001999 
	C122.623215,207.320068 125.320580,207.638123 128.731796,208.419220 
	C136.000473,208.613586 143.269897,208.785217 150.537369,209.017014 
	C152.556671,209.081406 155.273590,208.316635 154.168701,212.144043 
	C154.376358,213.288254 154.584000,214.432449 154.982864,216.264709 
	C154.987579,218.718582 155.316666,221.234711 154.862656,223.600571 
	C154.629333,224.816544 152.999451,225.764496 152.019730,226.051865 
	C154.818222,218.460342 150.870255,215.847870 144.052856,218.001862 
	C139.587631,218.000961 135.117447,217.869598 130.658661,218.038528 
	C126.773552,218.185715 122.901276,218.671738 118.204659,219.005219 
	C116.816322,220.159744 115.427986,221.314270 114.039650,222.468811 
	C115.621628,223.356735 117.203606,224.244659 118.629227,225.983932 
	C115.757675,226.657791 112.886131,227.331650 109.415718,227.755768 
	C108.348137,227.948654 107.280556,228.141525 106.212975,228.334412 
	C106.335503,228.854965 106.458038,229.375504 106.580566,229.896057 
	C107.663979,229.601883 108.747383,229.307709 109.986069,229.751465 
	C109.935318,230.500320 109.884567,231.249191 109.169212,231.930206 
	C104.756149,233.185776 107.895370,236.156631 106.965393,239.411514 
	C108.941292,237.743561 109.977249,236.869064 111.681084,235.991364 
	C112.120094,236.049545 112.559097,236.107742 113.011917,236.885010 
	C113.203026,238.098862 113.394142,239.312714 113.567146,240.411545 
	C111.789581,241.233795 110.247810,241.797333 108.879158,242.641525 
	C108.165894,243.081467 107.757736,244.016098 107.211769,244.727295 
	C108.146828,245.153076 109.081894,245.578857 110.009048,246.928879 
	C110.005341,247.923264 109.998779,248.917633 109.998352,249.912018 
	C109.992577,263.329987 109.991653,263.238098 123.706337,263.069458 
	C126.868011,263.030548 127.837524,262.160278 128.141357,258.884155 
	C128.635040,253.560867 125.369148,253.883438 121.991722,253.143509 
	C121.050247,252.095047 120.108772,251.046585 119.014854,249.215073 
	C119.006706,248.151443 118.998558,247.087799 119.223282,245.573257 
	C119.494003,245.377350 119.764725,245.181442 120.939972,244.983856 
	C123.959328,245.046051 126.978691,245.108261 130.022308,245.898224 
	C132.289581,249.720428 133.792953,248.424622 135.478729,244.976837 
	C135.648438,244.973755 135.818146,244.970657 136.211533,245.421997 
	C136.481628,245.616867 136.751740,245.811737 137.012207,246.894852 
	C136.988525,253.997528 136.988525,253.998795 143.849869,254.001968 
	C148.848694,254.004272 153.858185,254.202774 158.842865,253.937241 
	C162.585297,253.737885 164.677368,254.593506 164.020401,258.835938 
	C163.582626,261.662964 164.553864,263.112976 167.803421,263.058105 
	C177.298492,262.897614 186.799026,262.922577 196.295166,263.046997 
	C199.158066,263.084534 200.123032,262.003906 200.038040,259.233124 
	C199.895020,254.571976 200.062729,249.902206 199.988815,245.237823 
	C199.821411,234.673035 201.772339,236.102707 190.633698,235.189529 
	C190.889374,232.629318 191.145050,230.069122 191.354156,227.975296 
	C195.221741,227.681793 198.609924,227.424683 202.001480,227.953110 
	C201.855453,233.391296 205.951050,231.672791 208.984894,232.914017 
	C208.989410,235.407501 209.166061,237.915588 208.956329,240.390915 
	C208.673096,243.733856 209.668900,245.203934 213.346008,245.106110 
	C216.584610,245.019928 218.578033,244.456497 218.003662,240.715820 
	C217.429810,236.978638 219.035187,235.457092 222.741928,235.998154 
	C225.972275,236.469681 227.261948,235.124466 227.054672,231.806671 
	C226.827087,228.163879 226.685135,224.449951 227.196777,220.865646 
	C227.356476,219.747009 229.774124,218.176895 231.132233,218.202225 
	C232.768677,218.232712 235.861130,219.959518 235.770615,220.579010 
	C234.784821,227.325562 238.863480,227.371872 243.544952,227.026154 
	C245.528931,226.879654 247.551468,226.827637 249.523422,227.039871 
	C253.033401,227.417603 254.512192,226.026932 254.003418,222.528748 
	C253.501892,219.080368 254.902939,217.464554 258.443756,218.008942 
	C262.373535,218.613129 263.090027,216.651031 263.075470,213.132858 
	C263.020508,199.825012 263.130096,199.945984 249.765778,199.917938 
	C246.121353,199.910294 244.396835,200.875031 244.992920,204.678284 
	C245.574265,208.387573 243.638824,209.105637 240.355774,209.086182 
	C237.230347,209.067673 235.478683,208.276688 236.018707,204.882599 
	C236.674561,200.760544 234.779678,199.438705 230.946442,199.986740 
	C227.871979,200.426300 226.830582,198.976532 226.955963,195.970169 
	C227.135880,191.656036 226.988770,187.328232 227.461807,182.540955 
	C226.718338,182.308975 225.974884,182.077011 224.595001,181.981339 
	C218.029205,182.007263 218.029327,182.007263 217.998047,175.490952 
	C217.995712,175.005234 217.990173,174.519501 218.226700,173.583755 
	C218.497208,173.383804 218.767731,173.183838 219.967743,172.989273 
	C223.784424,172.993378 227.611923,172.821106 231.414536,173.054428 
	C234.774277,173.260590 236.208969,172.292587 236.106598,168.641678 
	C236.016449,165.425613 235.487305,163.416748 231.728302,163.997513 
	C228.028870,164.569077 226.456116,163.000488 226.994202,159.276566 
	C227.453384,156.098663 226.194031,154.521805 222.849197,154.999695 
	C219.300735,155.506668 217.901718,154.282394 217.865387,150.406891 
	C217.826508,146.259796 219.745361,145.598465 223.043777,146.008850 
	C226.105392,146.389771 227.333298,145.046219 227.019394,142.022873 
	C226.882980,140.708969 226.986389,139.370163 227.226593,137.593216 
	C227.496719,137.390244 227.766846,137.187271 228.966599,136.994705 
	C233.088791,136.995728 237.218750,136.841141 241.330719,137.046722 
	C244.660889,137.213196 245.134628,135.478790 245.040924,132.767105 
	C244.952148,130.198212 245.308426,127.739075 241.385422,127.945946 
	C236.945572,128.180069 232.484314,128.008560 227.583420,127.765045 
	C227.381744,127.493172 227.180054,127.221298 226.989212,126.021454 
	C226.993652,122.021675 226.852020,118.014641 227.050156,114.024483 
	C227.200180,111.003181 226.165192,109.855003 223.061371,109.944069 
	C216.733505,110.125648 210.393661,110.114914 204.065063,109.946251 
	C201.098999,109.867210 199.729767,110.733223 199.954956,113.888947 
	C200.156113,116.707756 199.934906,119.553986 200.011047,122.385139 
	C200.095444,125.523048 200.377762,128.159348 195.608307,128.165726 
	C191.091965,128.171753 190.780273,126.030159 190.966400,122.616898 
	C191.138550,119.459679 190.920456,116.282867 191.030029,113.120079 
	C191.146881,109.747589 188.894257,109.893684 186.655777,110.009743 
	C184.645599,110.113960 181.577103,109.273468 182.088333,112.764389 
	C183.028336,119.183250 179.381042,119.439278 174.714279,119.036079 
	C172.232819,118.821678 169.667526,119.287949 167.239273,118.870293 
	C166.045532,118.664978 164.054504,116.991135 164.167969,116.248131 
	C165.140305,109.880859 161.478973,109.505104 156.778000,109.962700 
	C154.631836,110.171616 152.433884,109.837959 150.285095,110.033073 
	C147.047607,110.327049 145.527557,109.124550 146.008194,105.802452 
	C146.534515,102.164513 145.175262,100.405037 141.342529,100.997688 
	C137.636887,101.570694 136.840622,99.648582 136.946121,96.342072 
	C137.142624,90.181961 136.913330,84.009262 137.040298,77.845482 
	C137.095932,75.144806 136.308426,73.614296 133.382050,74.011314 
	C129.416016,74.549377 127.293159,73.261421 127.977356,68.889351 
	C128.556808,65.186554 126.270691,64.988342 123.421219,64.928925 
	C120.369987,64.865288 118.464241,65.517242 119.013428,69.035767 
	C119.640648,73.054214 117.926514,74.606621 113.977402,74.002892 
	C110.411201,73.457695 109.909760,75.495605 109.947380,78.480530 
	C110.075516,88.645218 110.003777,98.812431 109.778267,109.431061 
	C109.506485,109.625145 109.234703,109.819221 108.033279,110.011566 
	C103.712593,110.007309 99.378067,109.814590 95.080849,110.130020 
	C93.993279,110.209846 92.164009,111.923477 92.178467,112.863235 
	C92.209709,114.893105 93.159264,118.634277 93.830498,118.655922 
	C99.205536,118.829231 104.603279,118.298309 110.218567,118.435730 
	C110.489784,118.627663 110.761002,118.819588 110.605591,119.701157 
	C110.620972,122.362312 110.636353,125.023468 109.826012,127.840149 
	C108.884140,128.896591 107.942268,129.953049 106.493774,131.255402 
	C105.996666,131.503372 105.499565,131.751328 104.449661,132.469070 
	C104.297775,133.920151 104.145889,135.371231 103.353226,136.984482 
M164.010147,61.075199 
	C164.007507,57.609150 163.839966,54.133091 164.049576,50.679924 
	C164.251068,47.360390 162.534119,46.848312 159.797806,46.953457 
	C157.238007,47.051815 154.747284,46.650570 154.947571,50.589294 
	C155.173630,55.034538 155.011627,59.499519 154.771210,64.406921 
	C154.499908,64.610703 154.228607,64.814484 153.073685,65.012566 
	C146.013458,64.985413 146.007095,64.985405 146.001022,71.881165 
	C145.993835,80.045044 146.122070,88.211708 145.939026,96.371490 
	C145.864594,99.688309 146.641693,101.110817 150.337906,101.132355 
	C154.159363,101.154617 155.363739,99.850639 155.057617,96.195511 
	C154.794342,93.051994 155.128418,89.862503 154.966690,86.705208 
	C154.820175,83.844803 156.025925,82.849319 158.789444,82.959526 
	C162.449097,83.105469 166.139023,83.214493 169.772385,82.874275 
	C170.919403,82.766876 172.948715,81.012482 172.837372,80.273598 
	C171.879593,73.918358 175.525040,73.507782 180.241364,73.967155 
	C182.386887,74.176132 184.584702,73.840485 186.732193,74.039200 
	C189.987289,74.340401 191.157150,73.110733 191.086090,69.796165 
	C191.019821,66.705757 190.752686,64.414116 186.836639,64.997978 
	C183.232544,65.535324 181.843719,64.210876 181.874847,60.354683 
	C181.904526,56.680534 183.287415,55.565464 186.619049,55.997562 
	C189.713135,56.398853 191.188248,55.376888 191.053879,51.904545 
	C190.385178,34.625149 194.600677,38.547581 176.448242,37.972267 
	C173.822159,37.889038 172.913803,38.957794 172.963730,41.512138 
	C173.074387,47.174690 173.001022,52.840931 172.993973,58.505657 
	C172.985687,65.168343 172.981689,65.168335 165.991196,64.185486 
	C165.380814,63.455116 164.770432,62.724751 164.010147,61.075199 
M100.944313,38.745239 
	C97.042587,38.496532 93.141785,38.051357 89.238983,38.033108 
	C72.293312,37.953869 55.347050,37.999115 38.237297,37.999115 
	C38.237297,59.150707 38.237297,79.882210 38.237297,100.783188 
	C59.179569,100.783188 79.909149,100.783188 100.997963,100.783188 
	C100.997963,80.282440 100.997963,59.997627 100.944313,38.745239 
M38.026585,215.503525 
	C38.026585,231.261246 38.026585,247.018982 38.026585,262.716309 
	C59.321167,262.716309 80.051552,262.716309 100.722374,262.716309 
	C100.722374,241.695343 100.722374,220.962860 100.722374,200.290222 
	C79.713120,200.290222 58.984268,200.290222 38.026585,200.290222 
	C38.026585,205.222122 38.026585,209.863602 38.026585,215.503525 
M211.518127,101.000702 
	C228.607376,101.000702 245.696625,101.000702 262.724487,101.000702 
	C262.724487,79.695786 262.724487,58.964161 262.724487,38.289490 
	C241.714920,38.289490 220.986420,38.289490 200.310974,38.289490 
	C200.310974,59.311234 200.310974,80.040199 200.310974,100.713737 
	C200.906540,100.844238 201.217667,100.969673 201.529678,100.971909 
	C204.527893,100.993378 207.526276,100.994064 211.518127,101.000702 
M236.038834,147.894333 
	C236.024918,152.055542 236.087967,156.218994 235.967926,160.377136 
	C235.897125,162.829437 236.650879,164.397812 239.334229,163.972641 
	C244.109344,163.216034 245.631989,165.304581 245.027695,169.816055 
	C244.586594,173.109222 246.956726,173.074127 249.256287,173.011536 
	C251.556274,172.948944 254.146057,173.534943 254.028381,169.776260 
	C253.908646,165.951492 253.796021,162.102310 254.124588,158.302231 
	C254.225159,157.139221 255.954544,155.060211 256.662048,155.170532 
	C263.502502,156.237152 263.322327,151.958435 263.021454,147.371674 
	C262.901886,145.548370 262.901733,143.705017 263.015839,141.881348 
	C263.202148,138.903549 262.985626,136.769913 258.933014,136.884750 
	C255.506805,136.981842 253.370148,137.488495 253.991470,141.510208 
	C254.533798,145.020660 252.982208,146.126511 249.493042,146.089722 
	C245.111160,146.043488 240.722183,146.670410 236.038834,147.894333 
M253.997437,240.492157 
	C254.498184,243.961563 253.058533,245.502457 249.536743,245.000473 
	C246.130157,244.514893 244.640244,245.815704 244.943695,249.418045 
	C245.207901,252.554443 245.129288,255.737747 244.960403,258.887360 
	C244.805328,261.779266 245.640533,263.242279 248.845749,263.051208 
	C252.324432,262.843842 255.830475,262.888519 259.314667,263.044922 
	C262.161560,263.172699 263.101776,261.994598 263.044281,259.226166 
	C262.909790,252.745377 262.954956,246.259430 263.023926,239.776611 
	C263.048370,237.479279 262.666748,235.724426 259.827637,236.011459 
	C257.324646,236.264481 253.622849,234.649185 253.997437,240.492157 
M226.997009,250.186157 
	C227.478500,253.956329 225.079056,254.276871 222.326828,253.977509 
	C219.170609,253.634201 218.009979,254.723389 217.872330,258.099609 
	C217.704346,262.220581 219.199554,263.125031 223.055649,263.087250 
	C235.955429,262.960907 236.144943,263.100586 235.899506,250.529373 
	C235.814453,246.172913 236.962357,244.307968 241.442413,244.979111 
	C244.909714,245.498566 245.114075,243.209534 245.031769,240.608841 
	C244.956390,238.226761 245.312210,236.157669 241.667389,235.916183 
	C226.989761,234.943848 226.997711,234.823944 226.997009,250.186157 
M110.328865,47.990269 
	C110.218910,52.465618 110.232346,56.948513 109.959404,61.413898 
	C109.746552,64.896301 111.752335,65.039627 114.368057,65.051445 
	C117.158142,65.064041 119.555168,64.924438 118.987541,61.177643 
	C118.341995,56.916527 120.240097,55.861790 124.300522,55.913086 
	C137.165085,56.075603 137.098038,55.925068 137.053421,42.785751 
	C137.042923,39.693886 136.748718,37.815472 132.836884,37.874992 
	C129.281677,37.929085 127.389351,38.705441 127.989273,42.598797 
	C128.543381,46.194889 126.829720,47.210121 123.420349,47.064098 
	C119.289642,46.887180 115.137291,47.215656 110.328865,47.990269 
M236.050049,111.768951 
	C235.424927,116.449173 235.822174,120.112854 242.217621,119.189095 
	C242.959961,119.081879 244.945923,121.531868 244.838364,122.650414 
	C244.393509,127.276909 246.449905,128.905426 250.558701,127.869141 
	C251.908508,127.528702 253.684006,125.739891 253.848099,124.435211 
	C254.300629,120.837013 254.162262,117.133842 253.913971,113.495644 
	C253.832596,112.303078 252.693832,110.184814 252.043640,110.186745 
	C246.826187,110.202217 241.609924,110.624123 236.050049,111.768951 
M55.998665,115.394600 
	C55.565884,113.408752 57.340378,110.227127 53.475727,110.053688 
	C49.170704,109.860497 44.834583,109.815376 40.549015,110.162666 
	C39.617939,110.238121 38.139469,112.264801 38.156055,113.374199 
	C38.183884,115.234833 39.050945,118.600281 39.842449,118.683212 
	C44.596680,119.181328 49.434280,119.018814 54.231735,118.804260 
	C54.855469,118.776360 55.408894,117.176422 55.998665,115.394600 
M38.034653,171.174072 
	C40.693142,171.664276 43.351635,172.154495 46.010128,172.644699 
	C46.292412,170.276688 47.374165,167.568268 46.563919,165.665451 
	C46.059612,164.481094 42.662323,163.990051 40.617851,164.110657 
	C36.168766,164.373138 38.682312,168.110809 38.034653,171.174072 
M263.011444,184.715042 
	C261.742096,182.342529 256.263489,180.587036 255.067352,182.502151 
	C253.987152,184.231644 254.005524,186.870331 254.199539,189.049271 
	C254.265717,189.792389 256.269348,190.687241 257.505646,190.943176 
	C261.785431,191.829132 263.774323,190.070663 263.011444,184.715042 
M41.612080,146.005356 
	C43.196732,145.767197 45.875992,145.946106 46.156128,145.210892 
	C46.926575,143.188828 47.541428,140.270645 46.588074,138.690018 
	C45.807308,137.395523 42.688622,137.189743 40.597782,137.162689 
	C39.744141,137.151657 38.075470,138.959946 38.156345,139.809235 
	C38.366421,142.015244 36.207760,145.525208 41.612080,146.005356 
M169.394531,101.003799 
	C174.734360,101.273933 172.920837,97.216125 172.912781,94.705063 
	C172.899353,90.519447 169.422211,92.311607 167.294220,92.034172 
	C163.596695,91.552094 164.172134,94.267212 163.946991,96.585335 
	C163.601334,100.144356 165.074493,101.496567 169.394531,101.003799 
M186.495102,91.993393 
	C183.082260,91.507530 181.587204,92.825615 181.944351,96.403351 
	C182.176361,98.727501 181.615234,101.430290 185.299408,100.966141 
	C187.431244,100.697556 190.905426,102.474480 190.910202,98.286362 
	C190.913055,95.777603 192.732132,91.715248 186.495102,91.993393 
M71.281837,118.998848 
	C73.672783,117.734169 75.412102,112.290138 73.478813,111.077965 
	C71.752983,109.995888 69.115364,110.013580 66.937584,110.203896 
	C66.200592,110.268303 65.309578,112.277031 65.057686,113.513115 
	C64.189316,117.774460 65.923164,119.782433 71.281837,118.998848 
M105.588181,235.517136 
	C105.588181,235.517136 105.476944,235.583557 105.588181,235.517136 
z"/>
<path fill="#020201" opacity="1.000000" stroke="none" 
	d="
M226.981277,183.006271 
	C226.988770,187.328232 227.135880,191.656036 226.955963,195.970169 
	C226.830582,198.976532 227.871979,200.426300 230.946442,199.986740 
	C234.779678,199.438705 236.674561,200.760544 236.018707,204.882599 
	C235.478683,208.276688 237.230347,209.067673 240.355774,209.086182 
	C243.638824,209.105637 245.574265,208.387573 244.992920,204.678284 
	C244.396835,200.875031 246.121353,199.910294 249.765778,199.917938 
	C263.130096,199.945984 263.020508,199.825012 263.075470,213.132858 
	C263.090027,216.651031 262.373535,218.613129 258.443756,218.008942 
	C254.902939,217.464554 253.501892,219.080368 254.003418,222.528748 
	C254.512192,226.026932 253.033401,227.417603 249.523422,227.039871 
	C247.551468,226.827637 245.528931,226.879654 243.544952,227.026154 
	C238.863480,227.371872 234.784821,227.325562 235.770615,220.579010 
	C235.861130,219.959518 232.768677,218.232712 231.132233,218.202225 
	C229.774124,218.176895 227.356476,219.747009 227.196777,220.865646 
	C226.685135,224.449951 226.827087,228.163879 227.054672,231.806671 
	C227.261948,235.124466 225.972275,236.469681 222.741928,235.998154 
	C219.035187,235.457092 217.429810,236.978638 218.003662,240.715820 
	C218.578033,244.456497 216.584610,245.019928 213.346008,245.106110 
	C209.668900,245.203934 208.673096,243.733856 208.956329,240.390915 
	C209.166061,237.915588 208.989410,235.407501 208.986084,232.046021 
	C209.458633,224.959656 204.945145,227.428558 201.998108,227.167572 
	C198.609924,227.424683 195.221741,227.681793 191.354156,227.975296 
	C191.145050,230.069122 190.889374,232.629318 190.807617,235.596100 
	C190.981537,236.002670 191.050644,235.948090 190.595795,235.804138 
	C186.015701,235.772781 181.876602,235.715103 177.769318,236.048904 
	C174.124588,236.345108 172.414917,235.139099 172.999084,231.350281 
	C173.560272,227.710571 171.730240,226.951660 168.416702,226.894073 
	C164.850464,226.832077 163.516937,228.112747 164.000244,231.518814 
	C164.491760,234.982620 163.070129,236.256699 159.548431,236.060440 
	C154.925156,235.802811 150.276688,235.999207 145.639053,235.997040 
	C138.033112,235.993469 138.048706,235.994827 136.893677,243.243484 
	C136.796906,243.850876 136.299271,244.394363 135.987854,244.967545 
	C135.818146,244.970657 135.648438,244.973755 134.827087,244.994446 
	C132.782974,245.064850 131.390518,245.117645 129.998047,245.170471 
	C126.978691,245.108261 123.959328,245.046051 120.270340,244.639923 
	C119.400803,243.348877 118.910629,242.356857 119.049019,241.462067 
	C119.829857,236.413422 117.348503,235.262146 112.998108,236.165924 
	C112.559097,236.107742 112.120094,236.049545 111.164352,235.685272 
	C110.376343,234.252121 110.105080,233.125092 109.833817,231.998047 
	C109.884567,231.249191 109.935318,230.500320 109.991547,229.137268 
	C110.002869,228.350555 110.008728,228.178040 110.014580,228.005508 
	C112.886131,227.331650 115.757675,226.657791 118.807259,225.191879 
	C118.997971,222.602570 119.010651,220.805313 119.023331,219.008057 
	C122.901276,218.671738 126.773552,218.185715 130.658661,218.038528 
	C135.117447,217.869598 139.587631,218.000961 144.730804,218.352570 
	C145.606598,219.613388 146.081345,220.563553 145.956497,221.427017 
	C145.243530,226.358368 147.445541,227.872467 152.000641,226.833557 
	C152.999451,225.764496 154.629333,224.816544 154.862656,223.600571 
	C155.316666,221.234711 154.987579,218.718582 154.978378,215.574005 
	C154.926300,213.922028 154.878693,212.960754 154.831085,211.999481 
	C155.273590,208.316635 152.556671,209.081406 150.537369,209.017014 
	C143.269897,208.785217 136.000473,208.613586 128.376160,207.754944 
	C128.017822,205.070633 128.015137,203.050613 128.359680,200.815643 
	C130.975876,200.342499 133.993561,200.867065 135.307419,199.610321 
	C136.674927,198.302277 136.397354,195.274353 136.941986,192.724823 
	C137.370621,191.970261 137.696381,191.489319 138.414948,191.010468 
	C142.791840,191.008316 146.785446,190.832977 150.757095,191.053146 
	C154.027557,191.234436 155.458878,190.035019 154.992722,186.777863 
	C154.470657,183.130203 155.874390,181.935135 159.653610,181.859406 
	C163.896118,181.774368 164.236938,183.825150 164.036148,187.070724 
	C163.862228,189.882050 164.059570,192.714279 163.984039,195.534348 
	C163.916473,198.056915 163.970535,200.067139 167.500473,200.083817 
	C170.870193,200.099731 173.207397,199.334747 172.945023,195.551376 
	C172.710495,192.169708 173.739639,190.438248 177.358459,190.997375 
	C181.194855,191.590118 182.140106,189.761703 182.094315,186.170547 
	C182.038422,181.787537 182.679459,177.395645 183.269821,173.002548 
	C184.206772,172.942184 184.892990,172.886871 185.962585,172.908569 
	C191.720993,171.970322 190.970520,175.862274 191.091660,179.370209 
	C192.347214,180.438461 193.674271,181.135193 195.421448,181.908905 
	C198.649475,182.334671 200.150696,181.505417 200.047256,178.263626 
	C199.821243,171.181107 199.869614,164.089844 199.799744,156.629639 
	C198.202667,155.822495 196.611771,155.387863 194.942749,154.582474 
	C195.725235,150.805740 192.839630,150.882782 190.974884,149.599304 
	C191.330017,145.858734 189.051666,145.722046 186.828934,146.025009 
	C182.694290,146.588577 181.489914,144.703644 181.989792,140.933670 
	C182.161484,139.638718 182.004395,138.300201 182.230240,136.702759 
	C184.398178,136.953262 187.388901,136.894043 188.072998,138.120941 
	C190.227066,141.984192 192.405319,140.276108 194.900711,139.213837 
	C193.076721,132.995819 190.502884,131.372757 181.973938,130.476105 
	C181.028198,129.377609 180.112991,128.102600 179.167862,128.080032 
	C172.080917,127.910728 164.983749,127.868454 157.901810,128.121948 
	C156.870895,128.158859 155.903793,129.978760 154.448929,131.040527 
	C148.326950,131.053101 142.663208,130.998749 136.994598,130.481659 
	C136.992447,124.628571 137.182755,119.226959 136.860962,113.856033 
	C136.784134,112.573517 134.999054,111.393349 133.571671,110.088661 
	C128.944199,110.691162 127.690933,108.850319 127.915443,104.750587 
	C128.240967,98.806053 127.829056,92.823807 128.060837,86.870468 
	C128.203674,83.201698 126.275948,82.975769 123.430946,82.932114 
	C120.420151,82.885902 118.785988,83.494255 118.938103,87.011261 
	C119.174042,92.466560 119.001244,97.939590 119.000008,103.405098 
	C118.998383,110.604240 117.200089,111.718460 110.008339,108.978676 
	C110.003777,98.812431 110.075516,88.645218 109.947380,78.480530 
	C109.909760,75.495605 110.411201,73.457695 113.977402,74.002892 
	C117.926514,74.606621 119.640648,73.054214 119.013428,69.035767 
	C118.464241,65.517242 120.369987,64.865288 123.421219,64.928925 
	C126.270691,64.988342 128.556808,65.186554 127.977356,68.889351 
	C127.293159,73.261421 129.416016,74.549377 133.382050,74.011314 
	C136.308426,73.614296 137.095932,75.144806 137.040298,77.845482 
	C136.913330,84.009262 137.142624,90.181961 136.946121,96.342072 
	C136.840622,99.648582 137.636887,101.570694 141.342529,100.997688 
	C145.175262,100.405037 146.534515,102.164513 146.008194,105.802452 
	C145.527557,109.124550 147.047607,110.327049 150.285095,110.033073 
	C152.433884,109.837959 154.631836,110.171616 156.778000,109.962700 
	C161.478973,109.505104 165.140305,109.880859 164.167969,116.248131 
	C164.054504,116.991135 166.045532,118.664978 167.239273,118.870293 
	C169.667526,119.287949 172.232819,118.821678 174.714279,119.036079 
	C179.381042,119.439278 183.028336,119.183250 182.088333,112.764389 
	C181.577103,109.273468 184.645599,110.113960 186.655777,110.009743 
	C188.894257,109.893684 191.146881,109.747589 191.030029,113.120079 
	C190.920456,116.282867 191.138550,119.459679 190.966400,122.616898 
	C190.780273,126.030159 191.091965,128.171753 195.608307,128.165726 
	C200.377762,128.159348 200.095444,125.523048 200.011047,122.385139 
	C199.934906,119.553986 200.156113,116.707756 199.954956,113.888947 
	C199.729767,110.733223 201.098999,109.867210 204.065063,109.946251 
	C210.393661,110.114914 216.733505,110.125648 223.061371,109.944069 
	C226.165192,109.855003 227.200180,111.003181 227.050156,114.024483 
	C226.852020,118.014641 226.993652,122.021675 226.641541,126.686417 
	C223.533813,127.222763 220.773758,127.094147 218.012848,126.524963 
	C218.009293,125.426285 217.932648,124.758621 218.016220,124.111656 
	C218.485825,120.476532 217.482788,118.728775 213.254425,118.859261 
	C209.578842,118.972687 209.036011,120.412804 208.891586,123.609329 
	C208.706146,127.713326 210.705688,128.359283 213.997345,128.018143 
	C214.973419,127.916985 215.969910,128.012939 217.174957,128.364136 
	C217.048859,134.886734 219.609451,138.170959 226.148041,137.546478 
	C226.407486,137.521729 226.702454,137.868820 226.980865,138.042664 
	C226.986389,139.370163 226.882980,140.708969 227.019394,142.022873 
	C227.333298,145.046219 226.105392,146.389771 223.043777,146.008850 
	C219.745361,145.598465 217.826508,146.259796 217.865387,150.406891 
	C217.901718,154.282394 219.300735,155.506668 222.849197,154.999695 
	C226.194031,154.521805 227.453384,156.098663 226.994202,159.276566 
	C226.456116,163.000488 228.028870,164.569077 231.728302,163.997513 
	C235.487305,163.416748 236.016449,165.425613 236.106598,168.641678 
	C236.208969,172.292587 234.774277,173.260590 231.414536,173.054428 
	C227.611923,172.821106 223.784424,172.993378 219.290543,172.637299 
	C218.410843,171.015106 217.912262,169.709183 218.060196,168.481171 
	C218.545624,164.451752 216.452072,163.971313 213.058960,163.882965 
	C209.053894,163.778702 209.019257,165.896362 208.916061,168.864044 
	C208.799210,172.224777 210.129272,173.253525 213.303726,173.084351 
	C214.843292,173.002319 216.424042,173.692947 217.986145,174.033783 
	C217.990173,174.519501 217.995712,175.005234 217.998047,175.490952 
	C218.029327,182.007263 218.029205,182.007263 225.140503,182.047073 
	C226.117767,182.410629 226.549530,182.708450 226.981277,183.006271 
M218.000046,194.791351 
	C218.298309,192.063934 217.216766,190.895065 214.341980,190.956329 
	C207.703033,191.097809 201.050262,190.827866 194.425125,191.161728 
	C193.229843,191.221954 191.215973,193.322800 191.155151,194.559036 
	C190.829132,201.184937 191.103729,207.837631 190.956558,214.476318 
	C190.889740,217.490616 192.326096,218.082306 194.929321,218.036514 
	C201.237228,217.925507 207.553299,217.853027 213.856323,218.061020 
	C217.218704,218.171967 218.159714,216.851334 218.057022,213.677414 
	C217.863831,207.705887 218.000641,201.723663 218.000046,194.791351 
M181.998184,212.592194 
	C180.882462,211.395691 179.902802,209.378387 178.623871,209.166367 
	C175.563751,208.659058 172.350845,209.172989 169.221786,208.955536 
	C165.657913,208.707916 163.807541,209.360718 163.843262,213.702545 
	C163.878525,217.987900 165.957687,218.195816 169.124512,218.030746 
	C171.930069,217.884521 174.766220,217.804749 177.558136,218.048111 
	C181.095917,218.356461 182.479782,216.929184 181.998184,212.592194 
z"/>
<path fill="#020202" opacity="1.000000" stroke="none" 
	d="
M65.015099,144.966248 
	C65.008011,143.812164 64.879753,142.643478 65.016571,141.506714 
	C65.427032,138.096375 64.109032,136.467880 60.587261,137.009171 
	C56.739445,137.600571 55.937351,135.733170 55.880047,132.210678 
	C55.818626,128.435287 57.481239,127.786873 60.662689,127.951637 
	C64.444931,128.147522 68.244743,128.004074 72.718018,128.357681 
	C73.068771,134.852905 75.552383,138.198151 82.127495,137.525848 
	C82.386818,137.499344 82.683960,137.842697 82.971420,138.457153 
	C83.001534,146.007843 83.001534,146.007858 90.327354,146.008286 
	C91.657005,146.008362 92.986656,146.008194 94.316307,146.008102 
	C101.651733,146.007629 102.697327,147.660431 99.555916,154.980865 
	C98.287155,154.987473 97.453842,154.965668 96.623642,155.006805 
	C94.577393,155.108139 91.768631,154.335815 92.068687,157.827072 
	C92.305344,160.580521 91.767868,164.422302 96.451492,163.949982 
	C100.437523,163.548004 101.038490,165.427246 101.116470,168.901947 
	C101.206413,172.909531 99.141319,173.363037 96.138771,172.978958 
	C92.197105,172.474731 91.998009,174.763077 91.912590,177.821701 
	C91.818672,181.184891 93.111465,182.067444 96.292671,182.083359 
	C100.858803,182.106232 105.422119,182.688049 109.988312,183.465729 
	C109.991295,185.928101 109.992607,187.955994 109.993927,189.983887 
	C108.422997,190.323517 106.852997,190.953827 105.281013,190.958817 
	C84.507568,191.024658 63.733788,190.977692 42.960278,191.031006 
	C40.067963,191.038422 37.872467,191.123672 37.864159,187.020370 
	C37.856342,183.157166 38.796341,181.332687 42.888386,181.982468 
	C46.270752,182.519577 47.449322,180.785767 46.987564,177.650146 
	C46.425117,173.830780 48.163940,172.462723 51.790844,172.995697 
	C55.114067,173.484039 56.304550,171.955902 56.031254,168.738770 
	C55.849041,166.593796 55.839760,164.406937 56.029045,162.263184 
	C56.437458,157.637634 56.232338,153.953644 49.794334,154.911911 
	C46.381935,155.419830 47.085876,152.403427 47.003227,150.358398 
	C46.913673,148.142471 46.690338,145.889954 50.075737,145.974930 
	C54.393993,146.083298 58.716877,146.007355 63.720547,146.358078 
	C64.056229,152.878494 66.584282,156.192291 73.148880,155.544754 
	C73.409462,155.519043 73.706451,155.862488 73.989212,156.474335 
	C73.267357,159.289902 75.785622,164.041458 71.668755,163.710175 
	C63.959023,163.089767 64.860855,167.622406 64.991386,172.286392 
	C65.037804,173.944702 65.117302,175.615646 64.974388,177.262833 
	C64.700020,180.425171 65.398209,182.147308 69.221954,182.123474 
	C72.873177,182.100739 74.276436,181.092911 74.150581,177.316559 
	C74.103676,175.909073 75.939552,173.117538 76.589600,173.211899 
	C83.308624,174.187180 83.390755,170.126175 83.024437,165.437134 
	C82.882675,163.622604 82.804817,161.762085 83.040352,159.967468 
	C83.564323,155.975159 81.967720,154.392227 78.015518,154.976913 
	C77.041695,155.120972 76.027283,154.990662 74.819931,154.636749 
	C74.948135,148.108810 72.403114,144.811234 65.846169,145.465927 
	C65.588348,145.491684 65.292976,145.141342 65.015099,144.966248 
z"/>
<path fill="#010101" opacity="1.000000" stroke="none" 
	d="
M100.971138,39.229027 
	C100.997963,59.997627 100.997963,80.282440 100.997963,100.783188 
	C79.909149,100.783188 59.179569,100.783188 38.237297,100.783188 
	C38.237297,79.882210 38.237297,59.150707 38.237297,37.999115 
	C55.347050,37.999115 72.293312,37.953869 89.238983,38.033108 
	C93.141785,38.051357 97.042587,38.496532 100.971138,39.229027 
M65.500580,46.999695 
	C59.408321,46.999695 53.316063,46.999695 47.345577,46.999695 
	C47.345577,62.347748 47.345577,77.078262 47.345577,91.696625 
	C62.381413,91.696625 77.115051,91.696625 91.726677,91.696625 
	C91.726677,76.661346 91.726677,61.930698 91.726677,46.999695 
	C83.117676,46.999695 74.809059,46.999695 65.500580,46.999695 
z"/>
<path fill="#010101" opacity="1.000000" stroke="none" 
	d="
M38.026585,215.004303 
	C38.026585,209.863602 38.026585,205.222122 38.026585,200.290222 
	C58.984268,200.290222 79.713120,200.290222 100.722374,200.290222 
	C100.722374,220.962860 100.722374,241.695343 100.722374,262.716309 
	C80.051552,262.716309 59.321167,262.716309 38.026585,262.716309 
	C38.026585,247.018982 38.026585,231.261246 38.026585,215.004303 
M61.505356,254.000702 
	C71.599983,254.000702 81.694618,254.000702 91.768158,254.000702 
	C91.768158,238.727768 91.768158,224.000198 91.768158,209.276978 
	C76.774216,209.276978 62.049175,209.276978 47.319725,209.276978 
	C47.319725,224.279083 47.319725,239.002441 47.319725,254.000702 
	C51.901573,254.000702 56.205231,254.000702 61.505356,254.000702 
z"/>
<path fill="#010101" opacity="1.000000" stroke="none" 
	d="
M211.021362,101.000702 
	C207.526276,100.994064 204.527893,100.993378 201.529678,100.971909 
	C201.217667,100.969673 200.906540,100.844238 200.310974,100.713737 
	C200.310974,80.040199 200.310974,59.311234 200.310974,38.289490 
	C220.986420,38.289490 241.714920,38.289490 262.724487,38.289490 
	C262.724487,58.964161 262.724487,79.695786 262.724487,101.000702 
	C245.696625,101.000702 228.607376,101.000702 211.021362,101.000702 
M209.051468,66.500443 
	C209.051468,74.926895 209.051468,83.353340 209.051468,91.708969 
	C224.350739,91.708969 239.079117,91.708969 253.740662,91.708969 
	C253.740662,76.686241 253.740662,61.957039 253.740662,47.292191 
	C238.723938,47.292191 223.997070,47.292191 209.051468,47.292191 
	C209.051468,53.556770 209.051468,59.528725 209.051468,66.500443 
z"/>
<path fill="#020202" opacity="1.000000" stroke="none" 
	d="
M166.004684,64.846909 
	C172.981689,65.168335 172.985687,65.168343 172.993973,58.505657 
	C173.001022,52.840931 173.074387,47.174690 172.963730,41.512138 
	C172.913803,38.957794 173.822159,37.889038 176.448242,37.972267 
	C194.600677,38.547581 190.385178,34.625149 191.053879,51.904545 
	C191.188248,55.376888 189.713135,56.398853 186.619049,55.997562 
	C183.287415,55.565464 181.904526,56.680534 181.874847,60.354683 
	C181.843719,64.210876 183.232544,65.535324 186.836639,64.997978 
	C190.752686,64.414116 191.019821,66.705757 191.086090,69.796165 
	C191.157150,73.110733 189.987289,74.340401 186.732193,74.039200 
	C184.584702,73.840485 182.386887,74.176132 180.241364,73.967155 
	C175.525040,73.507782 171.879593,73.918358 172.837372,80.273598 
	C172.948715,81.012482 170.919403,82.766876 169.772385,82.874275 
	C166.139023,83.214493 162.449097,83.105469 158.789444,82.959526 
	C156.025925,82.849319 154.820175,83.844803 154.966690,86.705208 
	C155.128418,89.862503 154.794342,93.051994 155.057617,96.195511 
	C155.363739,99.850639 154.159363,101.154617 150.337906,101.132355 
	C146.641693,101.110817 145.864594,99.688309 145.939026,96.371490 
	C146.122070,88.211708 145.993835,80.045044 146.001022,71.881165 
	C146.007095,64.985405 146.013458,64.985413 153.730194,65.363617 
	C154.586700,67.138496 155.058105,68.586655 154.932999,69.981316 
	C154.625412,73.409882 156.285553,74.098076 159.331482,74.094246 
	C162.466995,74.090302 164.316040,73.609352 164.140686,69.818810 
	C164.065506,68.193733 165.342224,66.506111 166.004684,64.846909 
z"/>
<path fill="#020201" opacity="1.000000" stroke="none" 
	d="
M190.943542,236.024902 
	C201.772339,236.102707 199.821411,234.673035 199.988815,245.237823 
	C200.062729,249.902206 199.895020,254.571976 200.038040,259.233124 
	C200.123032,262.003906 199.158066,263.084534 196.295166,263.046997 
	C186.799026,262.922577 177.298492,262.897614 167.803421,263.058105 
	C164.553864,263.112976 163.582626,261.662964 164.020401,258.835938 
	C164.677368,254.593506 162.585297,253.737885 158.842865,253.937241 
	C153.858185,254.202774 148.848694,254.004272 143.849869,254.001968 
	C136.988525,253.998795 136.988525,253.997528 137.377686,246.228287 
	C147.983078,245.375412 158.226593,245.293823 168.460922,244.943939 
	C171.875580,244.827225 173.526581,245.806519 173.010086,249.394180 
	C172.532074,252.714569 173.677322,254.103333 177.336899,254.125046 
	C181.125458,254.147491 182.533005,252.860947 182.004547,249.215866 
	C181.532944,245.962860 182.935822,244.529572 186.207779,245.003571 
	C189.852097,245.531540 191.510208,244.117050 191.031921,240.322342 
	C190.851135,238.887833 191.033707,237.407516 191.050644,235.948090 
	C191.050644,235.948090 190.981537,236.002670 190.943542,236.024902 
z"/>
<path fill="#FDFDFD" opacity="1.000000" stroke="none" 
	d="
M190.595795,235.804138 
	C191.033707,237.407516 190.851135,238.887833 191.031921,240.322342 
	C191.510208,244.117050 189.852097,245.531540 186.207779,245.003571 
	C182.935822,244.529572 181.532944,245.962860 182.004547,249.215866 
	C182.533005,252.860947 181.125458,254.147491 177.336899,254.125046 
	C173.677322,254.103333 172.532074,252.714569 173.010086,249.394180 
	C173.526581,245.806519 171.875580,244.827225 168.460922,244.943939 
	C158.226593,245.293823 147.983078,245.375412 137.382492,245.784164 
	C136.751740,245.811737 136.481628,245.616867 136.099701,245.194763 
	C136.299271,244.394363 136.796906,243.850876 136.893677,243.243484 
	C138.048706,235.994827 138.033112,235.993469 145.639053,235.997040 
	C150.276688,235.999207 154.925156,235.802811 159.548431,236.060440 
	C163.070129,236.256699 164.491760,234.982620 164.000244,231.518814 
	C163.516937,228.112747 164.850464,226.832077 168.416702,226.894073 
	C171.730240,226.951660 173.560272,227.710571 172.999084,231.350281 
	C172.414917,235.139099 174.124588,236.345108 177.769318,236.048904 
	C181.876602,235.715103 186.015701,235.772781 190.595795,235.804138 
z"/>
<path fill="#020202" opacity="1.000000" stroke="none" 
	d="
M236.187546,147.450592 
	C240.722183,146.670410 245.111160,146.043488 249.493042,146.089722 
	C252.982208,146.126511 254.533798,145.020660 253.991470,141.510208 
	C253.370148,137.488495 255.506805,136.981842 258.933014,136.884750 
	C262.985626,136.769913 263.202148,138.903549 263.015839,141.881348 
	C262.901733,143.705017 262.901886,145.548370 263.021454,147.371674 
	C263.322327,151.958435 263.502502,156.237152 256.662048,155.170532 
	C255.954544,155.060211 254.225159,157.139221 254.124588,158.302231 
	C253.796021,162.102310 253.908646,165.951492 254.028381,169.776260 
	C254.146057,173.534943 251.556274,172.948944 249.256287,173.011536 
	C246.956726,173.074127 244.586594,173.109222 245.027695,169.816055 
	C245.631989,165.304581 244.109344,163.216034 239.334229,163.972641 
	C236.650879,164.397812 235.897125,162.829437 235.967926,160.377136 
	C236.087967,156.218994 236.024918,152.055542 236.187546,147.450592 
z"/>
<path fill="#010101" opacity="1.000000" stroke="none" 
	d="
M253.996704,240.046722 
	C253.622849,234.649185 257.324646,236.264481 259.827637,236.011459 
	C262.666748,235.724426 263.048370,237.479279 263.023926,239.776611 
	C262.954956,246.259430 262.909790,252.745377 263.044281,259.226166 
	C263.101776,261.994598 262.161560,263.172699 259.314667,263.044922 
	C255.830475,262.888519 252.324432,262.843842 248.845749,263.051208 
	C245.640533,263.242279 244.805328,261.779266 244.960403,258.887360 
	C245.129288,255.737747 245.207901,252.554443 244.943695,249.418045 
	C244.640244,245.815704 246.130157,244.514893 249.536743,245.000473 
	C253.058533,245.502457 254.498184,243.961563 253.996704,240.046722 
z"/>
<path fill="#020202" opacity="1.000000" stroke="none" 
	d="
M226.997101,249.716461 
	C226.997711,234.823944 226.989761,234.943848 241.667389,235.916183 
	C245.312210,236.157669 244.956390,238.226761 245.031769,240.608841 
	C245.114075,243.209534 244.909714,245.498566 241.442413,244.979111 
	C236.962357,244.307968 235.814453,246.172913 235.899506,250.529373 
	C236.144943,263.100586 235.955429,262.960907 223.055649,263.087250 
	C219.199554,263.125031 217.704346,262.220581 217.872330,258.099609 
	C218.009979,254.723389 219.170609,253.634201 222.326828,253.977509 
	C225.079056,254.276871 227.478500,253.956329 226.997101,249.716461 
z"/>
<path fill="#020202" opacity="1.000000" stroke="none" 
	d="
M110.661583,47.657856 
	C115.137291,47.215656 119.289642,46.887180 123.420349,47.064098 
	C126.829720,47.210121 128.543381,46.194889 127.989273,42.598797 
	C127.389351,38.705441 129.281677,37.929085 132.836884,37.874992 
	C136.748718,37.815472 137.042923,39.693886 137.053421,42.785751 
	C137.098038,55.925068 137.165085,56.075603 124.300522,55.913086 
	C120.240097,55.861790 118.341995,56.916527 118.987541,61.177643 
	C119.555168,64.924438 117.158142,65.064041 114.368057,65.051445 
	C111.752335,65.039627 109.746552,64.896301 109.959404,61.413898 
	C110.232346,56.948513 110.218910,52.465618 110.661583,47.657856 
z"/>
<path fill="#FEFEFE" opacity="1.000000" stroke="none" 
	d="
M109.893303,109.204865 
	C117.200089,111.718460 118.998383,110.604240 119.000008,103.405098 
	C119.001244,97.939590 119.174042,92.466560 118.938103,87.011261 
	C118.785988,83.494255 120.420151,82.885902 123.430946,82.932114 
	C126.275948,82.975769 128.203674,83.201698 128.060837,86.870468 
	C127.829056,92.823807 128.240967,98.806053 127.915443,104.750587 
	C127.690933,108.850319 128.944199,110.691162 133.477417,110.454712 
	C133.133377,111.259903 132.484253,111.860291 131.773285,111.945686 
	C125.851082,112.657066 125.522461,113.106735 126.577225,119.017868 
	C124.773071,118.955521 123.386383,118.894318 121.950729,118.473152 
	C121.151405,115.302849 120.050880,112.940491 116.502808,112.995644 
	C112.459351,113.058502 112.956810,116.479317 111.765747,118.927460 
	C111.531242,119.012695 111.032219,119.011520 111.032219,119.011520 
	C110.761002,118.819588 110.489784,118.627663 110.103760,117.788437 
	C109.646942,114.765190 109.304932,112.389252 108.962921,110.013306 
	C109.234703,109.819221 109.506485,109.625145 109.893303,109.204865 
z"/>
<path fill="#6B9942" opacity="1.000000" stroke="none" 
	d="
M105.002457,131.999298 
	C105.499565,131.751328 105.996666,131.503372 107.143608,131.253052 
	C110.398148,131.027939 111.151566,132.327072 111.058449,134.779404 
	C110.916229,138.524536 111.049469,142.280136 111.067909,146.456421 
	C110.961678,154.893433 113.146927,157.144135 119.332695,155.198456 
	C120.688705,154.230225 121.724228,153.125122 122.966141,151.951904 
	C123.267471,151.777817 123.458420,151.597946 123.442535,151.577301 
	C123.279633,151.365646 123.083183,151.179810 122.834854,150.613541 
	C122.858246,149.491837 122.942879,148.743378 123.192390,147.909805 
	C123.419189,147.718903 123.558754,147.556900 123.529778,147.516846 
	C123.393517,147.328522 123.210968,147.173676 122.969254,146.769684 
	C122.893578,146.532471 122.904549,146.034592 122.885139,145.592255 
	C122.787766,142.535416 122.709808,139.920914 122.962250,137.044708 
	C123.524117,135.136002 123.755585,133.489014 124.336700,131.718658 
	C129.743362,130.780243 128.197296,134.389725 128.250717,137.394196 
	C128.192169,143.295990 128.139496,148.727066 128.083862,154.454010 
	C127.503670,155.536194 126.926445,156.322495 126.037079,157.212219 
	C125.525368,157.691360 125.325798,158.067093 125.015335,158.698059 
	C124.259369,159.238159 123.614281,159.523041 122.840103,159.669006 
	C122.469795,159.741898 122.228584,159.953690 121.737755,160.365509 
	C120.656960,160.745117 119.825775,160.924728 118.545631,161.095184 
	C115.412949,161.031738 112.729218,160.977417 109.917160,160.643723 
	C108.925545,159.553574 108.062248,158.742828 107.095978,157.562943 
	C106.310257,153.467499 105.627502,149.741165 104.997017,145.566010 
	C105.012962,142.408875 104.976639,139.700562 104.996872,136.578857 
	C105.036438,134.776718 105.019447,133.388016 105.002457,131.999298 
z"/>
<path fill="#FEFEFE" opacity="1.000000" stroke="none" 
	d="
M110.106537,190.209564 
	C109.992607,187.955994 109.991295,185.928101 110.103218,183.240570 
	C110.485161,182.384613 110.753868,182.188293 111.433762,181.994492 
	C115.562645,182.054581 119.280342,182.112137 122.997894,182.551880 
	C123.062309,185.348724 122.513252,188.020447 123.383392,190.097641 
	C124.093964,191.793900 126.416725,195.121094 128.660583,190.546524 
	C131.687668,190.480911 134.338943,190.226624 137.101471,190.199280 
	C137.482529,190.620255 137.752335,190.814316 138.022141,191.008377 
	C137.696381,191.489319 137.370621,191.970261 136.591339,192.807068 
	C135.527405,194.588165 134.916992,196.013397 134.280579,197.499329 
	C132.010742,198.240219 127.181358,194.607559 128.012466,201.030594 
	C128.015137,203.050613 128.017822,205.070633 128.019226,207.523422 
	C125.320580,207.638123 122.623215,207.320068 119.465500,206.541061 
	C119.000000,201.396423 118.994858,196.712708 118.994873,191.676392 
	C118.764626,190.454575 118.529228,189.585373 118.293823,188.716171 
	C117.195282,189.421677 116.096733,190.127182 114.607262,190.908630 
	C113.154518,190.993362 112.092697,191.002151 111.030869,191.010941 
	C110.760292,190.819046 110.489716,190.627151 110.106537,190.209564 
M123.995964,201.219528 
	C123.404144,202.084610 122.812332,202.949707 122.220520,203.814789 
	C123.495667,204.125824 124.770821,204.436844 126.045967,204.747864 
	C126.155518,204.414581 126.265060,204.081314 126.374603,203.748032 
	C125.781517,203.022308 125.188423,202.296585 123.995964,201.219528 
z"/>
<path fill="#020202" opacity="1.000000" stroke="none" 
	d="
M122.001877,253.832428 
	C125.369148,253.883438 128.635040,253.560867 128.141357,258.884155 
	C127.837524,262.160278 126.868011,263.030548 123.706337,263.069458 
	C109.991653,263.238098 109.992577,263.329987 109.998352,249.912018 
	C109.998779,248.917633 110.005341,247.923264 110.351624,246.261078 
	C113.459610,245.736908 116.225006,245.880539 118.990410,246.024170 
	C118.998558,247.087799 119.006706,248.151443 119.011925,249.978851 
	C120.006622,251.772568 121.004250,252.802505 122.001877,253.832428 
z"/>
<path fill="#030303" opacity="1.000000" stroke="none" 
	d="
M236.221680,111.345322 
	C241.609924,110.624123 246.826187,110.202217 252.043640,110.186745 
	C252.693832,110.184814 253.832596,112.303078 253.913971,113.495644 
	C254.162262,117.133842 254.300629,120.837013 253.848099,124.435211 
	C253.684006,125.739891 251.908508,127.528702 250.558701,127.869141 
	C246.449905,128.905426 244.393509,127.276909 244.838364,122.650414 
	C244.945923,121.531868 242.959961,119.081879 242.217621,119.189095 
	C235.822174,120.112854 235.424927,116.449173 236.221680,111.345322 
z"/>
<path fill="#FAFBF8" opacity="1.000000" stroke="none" 
	d="
M111.065758,146.031281 
	C111.049469,142.280136 110.916229,138.524536 111.058449,134.779404 
	C111.151566,132.327072 110.398148,131.027939 107.396919,131.130096 
	C107.942268,129.953049 108.884140,128.896591 110.602234,127.874077 
	C113.238785,128.261032 115.100990,128.911240 116.959030,128.899567 
	C119.975723,128.880615 122.989685,128.428055 126.095184,128.522949 
	C128.194702,129.768097 130.203812,130.648849 132.204132,131.879761 
	C132.456985,133.782867 132.718613,135.335831 132.580688,136.935394 
	C130.872940,136.962494 129.564774,136.942993 128.256592,136.923492 
	C128.197296,134.389725 129.743362,130.780243 123.970627,131.777740 
	C122.855438,133.633499 122.455956,135.306793 121.645279,136.980347 
	C116.875130,138.638229 119.826813,142.313705 118.900627,145.178040 
	C118.497353,145.610367 118.226364,145.820007 117.523193,146.018753 
	C115.082596,146.015656 113.074181,146.023468 111.065758,146.031281 
z"/>
<path fill="#FAFBF8" opacity="1.000000" stroke="none" 
	d="
M104.944748,146.014847 
	C105.627502,149.741165 106.310257,153.467499 106.688690,157.583984 
	C104.253838,156.976456 102.123306,155.978760 99.992775,154.981079 
	C102.697327,147.660431 101.651733,146.007629 94.316307,146.008102 
	C92.986656,146.008194 91.657005,146.008362 90.327354,146.008286 
	C83.001534,146.007858 83.001534,146.007843 83.200104,138.344177 
	C83.616859,137.515564 83.812866,137.243362 84.474792,136.977692 
	C90.288261,136.641785 95.635818,136.299316 100.983376,135.956833 
	C101.182709,136.228226 101.382042,136.499619 101.595596,137.237411 
	C101.718391,140.876648 97.963898,145.599625 104.944748,146.014847 
z"/>
<path fill="#020202" opacity="1.000000" stroke="none" 
	d="
M110.839722,191.332291 
	C112.092697,191.002151 113.154518,190.993362 114.957184,190.986542 
	C116.795242,191.335358 117.892471,191.682190 118.989716,192.029007 
	C118.994858,196.712708 119.000000,201.396423 119.081772,206.540634 
	C116.746315,210.676544 113.277809,208.660339 110.194824,208.603928 
	C109.863625,208.597870 109.192276,207.780670 109.273193,207.537888 
	C110.690819,203.284927 110.088837,199.461273 107.614723,195.669876 
	C107.304047,195.193787 109.574203,193.033554 110.839722,191.332291 
z"/>
<path fill="#020202" opacity="1.000000" stroke="none" 
	d="
M126.004799,128.158539 
	C122.989685,128.428055 119.975723,128.880615 116.959030,128.899567 
	C115.100990,128.911240 113.238785,128.261032 111.015091,127.796310 
	C110.636353,125.023468 110.620972,122.362312 110.818909,119.356339 
	C111.032219,119.011520 111.531242,119.012695 112.215195,118.999603 
	C115.932655,118.935379 118.966179,118.884247 121.999695,118.833115 
	C123.386383,118.894318 124.773071,118.955521 126.787369,119.355965 
	C127.937233,122.681656 129.479645,125.838097 126.004799,128.158539 
z"/>
<path fill="#020202" opacity="1.000000" stroke="none" 
	d="
M155.018387,63.955914 
	C155.011627,59.499519 155.173630,55.034538 154.947571,50.589294 
	C154.747284,46.650570 157.238007,47.051815 159.797806,46.953457 
	C162.534119,46.848312 164.251068,47.360390 164.049576,50.679924 
	C163.839966,54.133091 164.007507,57.609150 163.999054,61.928574 
	C161.493256,66.956421 158.190216,64.954941 155.018387,63.955914 
z"/>
<path fill="#020201" opacity="1.000000" stroke="none" 
	d="
M228.032364,128.013443 
	C232.484314,128.008560 236.945572,128.180069 241.385422,127.945946 
	C245.308426,127.739075 244.952148,130.198212 245.040924,132.767105 
	C245.134628,135.478790 244.660889,137.213196 241.330719,137.046722 
	C237.218750,136.841141 233.088791,136.995728 228.302826,136.646423 
	C227.770142,133.536575 227.901260,130.775009 228.032364,128.013443 
z"/>
<path fill="#020202" opacity="1.000000" stroke="none" 
	d="
M108.498100,110.012436 
	C109.304932,112.389252 109.646942,114.765190 109.991508,117.562050 
	C104.603279,118.298309 99.205536,118.829231 93.830498,118.655922 
	C93.159264,118.634277 92.209709,114.893105 92.178467,112.863235 
	C92.164009,111.923477 93.993279,110.209846 95.080849,110.130020 
	C99.378067,109.814590 103.712593,110.007309 108.498100,110.012436 
z"/>
<path fill="#020202" opacity="1.000000" stroke="none" 
	d="
M100.983200,135.561310 
	C95.635818,136.299316 90.288261,136.641785 84.279358,136.634491 
	C83.756027,133.527588 83.894028,130.770447 84.032036,128.013290 
	C89.438385,128.197479 94.844734,128.381683 100.613304,129.166153 
	C101.037910,130.516220 101.100296,131.266006 101.162689,132.015793 
	C101.102798,133.065781 101.042908,134.115784 100.983200,135.561310 
z"/>
<path fill="#020202" opacity="1.000000" stroke="none" 
	d="
M55.996773,115.849625 
	C55.408894,117.176422 54.855469,118.776360 54.231735,118.804260 
	C49.434280,119.018814 44.596680,119.181328 39.842449,118.683212 
	C39.050945,118.600281 38.183884,115.234833 38.156055,113.374199 
	C38.139469,112.264801 39.617939,110.238121 40.549015,110.162666 
	C44.834583,109.815376 49.170704,109.860497 53.475727,110.053688 
	C57.340378,110.227127 55.565884,113.408752 55.996773,115.849625 
z"/>
<path fill="#F7F7F7" opacity="1.000000" stroke="none" 
	d="
M154.894806,64.181419 
	C158.190216,64.954941 161.493256,66.956421 164.074020,62.388168 
	C164.770432,62.724751 165.380814,63.455116 165.997940,64.516197 
	C165.342224,66.506111 164.065506,68.193733 164.140686,69.818810 
	C164.316040,73.609352 162.466995,74.090302 159.331482,74.094246 
	C156.285553,74.098076 154.625412,73.409882 154.932999,69.981316 
	C155.058105,68.586655 154.586700,67.138496 154.171997,65.366470 
	C154.228607,64.814484 154.499908,64.610703 154.894806,64.181419 
z"/>
<path fill="#F7F7F7" opacity="1.000000" stroke="none" 
	d="
M83.807831,127.889305 
	C83.894028,130.770447 83.756027,133.527588 83.813446,136.627945 
	C83.812866,137.243362 83.616859,137.515564 83.192169,137.900757 
	C82.683960,137.842697 82.386818,137.499344 82.127495,137.525848 
	C75.552383,138.198151 73.068771,134.852905 73.183136,128.360840 
	C73.234093,127.814407 73.501007,127.614845 74.227356,127.402084 
	C77.451469,127.242569 80.216148,127.096245 82.980820,126.949921 
	C83.181755,127.221718 83.382690,127.493523 83.807831,127.889305 
z"/>
<path fill="#F7F7F7" opacity="1.000000" stroke="none" 
	d="
M227.807892,127.889244 
	C227.901260,130.775009 227.770142,133.536575 227.838013,136.641220 
	C227.766846,137.187271 227.496719,137.390244 227.103729,137.817932 
	C226.702454,137.868820 226.407486,137.521729 226.148041,137.546478 
	C219.609451,138.170959 217.048859,134.886734 217.401154,128.244003 
	C217.610855,127.507362 217.812286,127.236443 218.013718,126.965523 
	C220.773758,127.094147 223.533813,127.222763 226.636108,127.150406 
	C227.180054,127.221298 227.381744,127.493172 227.807892,127.889244 
z"/>
<path fill="#F7F7F7" opacity="1.000000" stroke="none" 
	d="
M73.986481,156.033936 
	C73.706451,155.862488 73.409462,155.519043 73.148880,155.544754 
	C66.584282,156.192291 64.056229,152.878494 64.185722,146.359436 
	C64.235779,145.812698 64.503441,145.611786 64.893097,145.188568 
	C65.292976,145.141342 65.588348,145.491684 65.846169,145.465927 
	C72.403114,144.811234 74.948135,148.108810 74.596054,154.756653 
	C74.384666,155.495499 74.185577,155.764725 73.986481,156.033936 
z"/>
<path fill="#FAFBF8" opacity="1.000000" stroke="none" 
	d="
M218.106415,173.808777 
	C216.424042,173.692947 214.843292,173.002319 213.303726,173.084351 
	C210.129272,173.253525 208.799210,172.224777 208.916061,168.864044 
	C209.019257,165.896362 209.053894,163.778702 213.058960,163.882965 
	C216.452072,163.971313 218.545624,164.451752 218.060196,168.481171 
	C217.912262,169.709183 218.410843,171.015106 218.825790,172.634613 
	C218.767731,173.183838 218.497208,173.383804 218.106415,173.808777 
z"/>
<path fill="#030303" opacity="1.000000" stroke="none" 
	d="
M38.015999,170.727646 
	C38.682312,168.110809 36.168766,164.373138 40.617851,164.110657 
	C42.662323,163.990051 46.059612,164.481094 46.563919,165.665451 
	C47.374165,167.568268 46.292412,170.276688 46.010124,172.644699 
	C43.351635,172.154495 40.693142,171.664276 38.015999,170.727646 
z"/>
<path fill="#030303" opacity="1.000000" stroke="none" 
	d="
M82.985779,126.510117 
	C80.216148,127.096245 77.451469,127.242569 74.348694,127.180573 
	C74.006096,126.151909 74.020386,125.330948 73.993767,124.511322 
	C73.895287,121.479637 73.505272,118.872414 78.280121,118.814514 
	C83.116135,118.755875 83.306465,121.141418 83.011124,124.594223 
	C82.969292,125.083260 82.995827,125.578140 82.985779,126.510117 
z"/>
<path fill="#030303" opacity="1.000000" stroke="none" 
	d="
M263.008026,185.162079 
	C263.774323,190.070663 261.785431,191.829132 257.505646,190.943176 
	C256.269348,190.687241 254.265717,189.792389 254.199539,189.049271 
	C254.005524,186.870331 253.987152,184.231644 255.067352,182.502151 
	C256.263489,180.587036 261.742096,182.342529 263.008026,185.162079 
z"/>
<path fill="#030303" opacity="1.000000" stroke="none" 
	d="
M41.164066,146.003052 
	C36.207760,145.525208 38.366421,142.015244 38.156345,139.809235 
	C38.075470,138.959946 39.744141,137.151657 40.597782,137.162689 
	C42.688622,137.189743 45.807308,137.395523 46.588074,138.690018 
	C47.541428,140.270645 46.926575,143.188828 46.156128,145.210892 
	C45.875992,145.946106 43.196732,145.767197 41.164066,146.003052 
z"/>
<path fill="#030303" opacity="1.000000" stroke="none" 
	d="
M168.947388,101.004150 
	C165.074493,101.496567 163.601334,100.144356 163.946991,96.585335 
	C164.172134,94.267212 163.596695,91.552094 167.294220,92.034172 
	C169.422211,92.311607 172.899353,90.519447 172.912781,94.705063 
	C172.920837,97.216125 174.734360,101.273933 168.947388,101.004150 
z"/>
<path fill="#030303" opacity="1.000000" stroke="none" 
	d="
M186.941376,91.994759 
	C192.732132,91.715248 190.913055,95.777603 190.910202,98.286362 
	C190.905426,102.474480 187.431244,100.697556 185.299408,100.966141 
	C181.615234,101.430290 182.176361,98.727501 181.944351,96.403351 
	C181.587204,92.825615 183.082260,91.507530 186.941376,91.994759 
z"/>
<path fill="#030303" opacity="1.000000" stroke="none" 
	d="
M70.835007,118.999428 
	C65.923164,119.782433 64.189316,117.774460 65.057686,113.513115 
	C65.309578,112.277031 66.200592,110.268303 66.937584,110.203896 
	C69.115364,110.013580 71.752983,109.995888 73.478813,111.077965 
	C75.412102,112.290138 73.672783,117.734169 70.835007,118.999428 
z"/>
<path fill="#FDFDFD" opacity="1.000000" stroke="none" 
	d="
M119.106842,245.798706 
	C116.225006,245.880539 113.459610,245.736908 110.355583,245.798950 
	C109.081894,245.578857 108.146828,245.153076 107.211769,244.727295 
	C107.757736,244.016098 108.165894,243.081467 108.879158,242.641525 
	C110.247810,241.797333 111.789581,241.233795 113.567146,240.411545 
	C113.394142,239.312714 113.203026,238.098862 113.005013,236.525467 
	C117.348503,235.262146 119.829857,236.413422 119.049019,241.462067 
	C118.910629,242.356857 119.400803,243.348877 119.818085,244.640778 
	C119.764725,245.181442 119.494003,245.377350 119.106842,245.798706 
z"/>
<path fill="#FEFEFE" opacity="1.000000" stroke="none" 
	d="
M152.010193,226.442719 
	C147.445541,227.872467 145.243530,226.358368 145.956497,221.427017 
	C146.081345,220.563553 145.606598,219.613388 145.198761,218.353607 
	C150.870255,215.847870 154.818222,218.460342 152.010193,226.442719 
z"/>
<path fill="#040702" opacity="1.000000" stroke="none" 
	d="
M104.997009,145.566010 
	C97.963898,145.599625 101.718391,140.876648 101.820770,137.357941 
	C102.472237,137.002869 102.912735,136.993683 103.903946,136.980743 
	C104.454666,136.976990 104.940315,136.992264 104.940315,136.992264 
	C104.976639,139.700562 105.012962,142.408875 104.997009,145.566010 
z"/>
<path fill="#FDFDFD" opacity="1.000000" stroke="none" 
	d="
M201.999786,227.560333 
	C204.945145,227.428558 209.458633,224.959656 208.910141,231.590012 
	C205.951050,231.672791 201.855453,233.391296 201.999786,227.560333 
z"/>
<path fill="#FDFDFD" opacity="1.000000" stroke="none" 
	d="
M118.613998,219.006638 
	C119.010651,220.805313 118.997971,222.602570 118.885437,224.766205 
	C117.203606,224.244659 115.621628,223.356735 114.039642,222.468811 
	C115.427986,221.314270 116.816322,220.159744 118.613998,219.006638 
z"/>
<path fill="#FDFDFD" opacity="1.000000" stroke="none" 
	d="
M109.501511,231.964127 
	C110.105080,233.125092 110.376343,234.252121 110.830414,235.686859 
	C109.977249,236.869064 108.941292,237.743561 106.965393,239.411514 
	C107.895370,236.156631 104.756149,233.185776 109.501511,231.964127 
z"/>
<path fill="#FDFDFD" opacity="1.000000" stroke="none" 
	d="
M130.010178,245.534332 
	C131.390518,245.117645 132.782974,245.064850 134.588577,245.083527 
	C133.792953,248.424622 132.289581,249.720428 130.010178,245.534332 
z"/>
<path fill="#FDFDFD" opacity="1.000000" stroke="none" 
	d="
M121.996796,253.487976 
	C121.004250,252.802505 120.006622,251.772568 119.088150,250.370377 
	C120.108772,251.046585 121.050247,252.095047 121.996796,253.487976 
z"/>
<path fill="#FDFDFD" opacity="1.000000" stroke="none" 
	d="
M109.715149,227.880646 
	C110.008728,228.178040 110.002869,228.350555 109.913902,228.768311 
	C108.747383,229.307709 107.663979,229.601883 106.580566,229.896057 
	C106.458038,229.375504 106.335503,228.854965 106.212975,228.334412 
	C107.280556,228.141525 108.348137,227.948654 109.715149,227.880646 
z"/>
<path fill="#FAFBF8" opacity="1.000000" stroke="none" 
	d="
M101.434448,132.122742 
	C101.100296,131.266006 101.037910,130.516220 100.972610,129.388580 
	C101.637177,129.677979 102.304657,130.345245 102.972130,131.012512 
	C102.550163,131.418243 102.128189,131.823975 101.434448,132.122742 
z"/>
<path fill="#FEFEFE" opacity="1.000000" stroke="none" 
	d="
M154.499893,212.071762 
	C154.878693,212.960754 154.926300,213.922028 154.882767,215.229980 
	C154.584000,214.432449 154.376358,213.288254 154.499893,212.071762 
z"/>
<path fill="#FAFBF8" opacity="1.000000" stroke="none" 
	d="
M104.996872,136.578857 
	C104.940315,136.992264 104.454666,136.976990 104.224335,136.899658 
	C104.145889,135.371231 104.297775,133.920151 104.726059,132.234192 
	C105.019447,133.388016 105.036438,134.776718 104.996872,136.578857 
z"/>
<path fill="#FAFBF8" opacity="1.000000" stroke="none" 
	d="
M227.221542,182.773621 
	C226.549530,182.708450 226.117767,182.410629 225.458710,181.978912 
	C225.974884,182.077011 226.718338,182.308975 227.221542,182.773621 
z"/>
<path fill="#FDFDFD" opacity="1.000000" stroke="none" 
	d="
M105.532562,235.550354 
	C105.476944,235.583557 105.588181,235.517136 105.532562,235.550354 
z"/>
<path fill="#FEFEFE" opacity="1.000000" stroke="none" 
	d="
M138.414948,191.010468 
	C137.752335,190.814316 137.482529,190.620255 137.099808,189.758713 
	C137.755280,186.445038 134.770798,181.551453 140.843292,182.066971 
	C145.098816,182.428238 146.603104,180.819534 146.022232,176.738312 
	C145.628159,173.969635 146.901169,172.898697 149.722427,172.959213 
	C156.191254,173.097961 162.666367,172.928207 169.136261,173.039246 
	C171.771896,173.084488 173.450272,172.396469 172.988464,169.436600 
	C172.207031,164.428177 174.658447,163.257675 179.071808,164.516708 
	C180.957199,166.854202 182.479233,167.701599 185.282501,165.684052 
	C189.843826,162.401291 194.937134,159.857712 199.805908,157.002151 
	C199.869614,164.089844 199.821243,171.181107 200.047256,178.263626 
	C200.150696,181.505417 198.649475,182.334671 195.376343,181.572662 
	C193.661789,180.439148 192.412476,179.718918 191.163147,178.998688 
	C190.970520,175.862274 191.720993,171.970322 186.053314,172.487640 
	C184.907166,171.091721 184.053680,170.193741 183.200211,169.295746 
	C183.139832,170.533020 183.079453,171.770309 183.019073,173.007584 
	C182.679459,177.395645 182.038422,181.787537 182.094315,186.170547 
	C182.140106,189.761703 181.194855,191.590118 177.358459,190.997375 
	C173.739639,190.438248 172.710495,192.169708 172.945023,195.551376 
	C173.207397,199.334747 170.870193,200.099731 167.500473,200.083817 
	C163.970535,200.067139 163.916473,198.056915 163.984039,195.534348 
	C164.059570,192.714279 163.862228,189.882050 164.036148,187.070724 
	C164.236938,183.825150 163.896118,181.774368 159.653610,181.859406 
	C155.874390,181.935135 154.470657,183.130203 154.992722,186.777863 
	C155.458878,190.035019 154.027557,191.234436 150.757095,191.053146 
	C146.785446,190.832977 142.791840,191.008316 138.414948,191.010468 
z"/>
<path fill="#FEFEFE" opacity="1.000000" stroke="none" 
	d="
M218.000153,195.268616 
	C218.000641,201.723663 217.863831,207.705887 218.057022,213.677414 
	C218.159714,216.851334 217.218704,218.171967 213.856323,218.061020 
	C207.553299,217.853027 201.237228,217.925507 194.929321,218.036514 
	C192.326096,218.082306 190.889740,217.490616 190.956558,214.476318 
	C191.103729,207.837631 190.829132,201.184937 191.155151,194.559036 
	C191.215973,193.322800 193.229843,191.221954 194.425125,191.161728 
	C201.050262,190.827866 207.703033,191.097809 214.341980,190.956329 
	C217.216766,190.895065 218.298309,192.063934 218.000153,195.268616 
M208.995422,206.276413 
	C208.988495,204.954315 209.381851,203.437103 208.859818,202.366074 
	C208.357803,201.336121 206.897964,200.119904 205.877609,200.136383 
	C203.957474,200.167435 200.716980,200.624969 200.415649,201.625275 
	C199.785217,203.717941 200.707092,206.278229 200.991440,208.646469 
	C203.643890,208.152206 206.296326,207.657944 208.995422,206.276413 
z"/>
<path fill="#6C9744" opacity="1.000000" stroke="none" 
	d="
M181.990631,130.879578 
	C190.502884,131.372757 193.076721,132.995819 194.900711,139.213837 
	C192.405319,140.276108 190.227066,141.984192 188.072998,138.120941 
	C187.388901,136.894043 184.398178,136.953262 181.865570,136.553207 
	C176.691132,139.118271 174.539780,144.908966 176.946060,150.621857 
	C177.860809,152.793579 180.521912,155.027237 182.785980,155.570648 
	C184.475037,155.976059 186.878250,153.825409 188.817017,152.584320 
	C189.713516,152.010452 190.260681,150.890900 190.966217,150.018738 
	C192.839630,150.882782 195.725235,150.805740 194.650833,154.761444 
	C191.427811,159.630386 187.252701,161.446899 181.686356,161.021057 
	C178.196747,158.948410 175.080002,156.931992 171.893280,154.554230 
	C171.214798,151.459396 170.606293,148.725891 170.042526,145.600922 
	C170.669052,142.516098 171.250854,139.822784 172.122208,136.932495 
	C175.604721,134.783539 178.797668,132.831558 181.990631,130.879578 
z"/>
<path fill="#638F3B" opacity="1.000000" stroke="none" 
	d="
M132.980255,136.888794 
	C132.718613,135.335831 132.456985,133.782867 132.604324,131.844025 
	C134.342026,131.286896 135.670746,131.115646 136.999466,130.944397 
	C142.663208,130.998749 148.326950,131.053101 154.556305,131.456680 
	C155.056091,133.520584 154.990295,135.235245 154.541595,136.846588 
	C146.809418,136.011017 146.784760,136.011139 146.821396,143.279434 
	C146.841309,147.231110 146.961777,151.182297 147.000458,155.515518 
	C146.620667,157.607162 146.277344,159.316986 145.508514,160.963318 
	C142.029984,161.253784 140.543777,160.224854 140.782150,156.828812 
	C141.046249,153.066238 140.844086,149.270859 140.843201,145.489777 
	C140.841248,137.075119 140.840805,137.075119 132.980255,136.888794 
z"/>
<path fill="#F6FAF2" opacity="1.000000" stroke="none" 
	d="
M154.924469,136.949921 
	C154.990295,135.235245 155.056091,133.520584 155.014526,131.389771 
	C155.903793,129.978760 156.870895,128.158859 157.901810,128.121948 
	C164.983749,127.868454 172.080917,127.910728 179.167862,128.080032 
	C180.112991,128.102600 181.028198,129.377609 181.973938,130.476105 
	C178.797668,132.831558 175.604721,134.783539 171.705994,136.883087 
	C169.027618,137.041351 167.055038,137.052048 165.020599,136.647110 
	C165.388275,131.630157 163.451279,130.351379 158.921921,132.100311 
	C158.921921,136.791550 158.921921,141.390930 158.508408,145.995850 
	C157.062256,144.932724 155.494553,144.020706 155.124954,142.757980 
	C154.597717,140.956726 154.948639,138.898422 154.924469,136.949921 
z"/>
<path fill="#FEFEFE" opacity="1.000000" stroke="none" 
	d="
M136.994598,130.481659 
	C135.670746,131.115646 134.342026,131.286896 132.613129,131.493881 
	C130.203812,130.648849 128.194702,129.768097 126.095184,128.522949 
	C129.479645,125.838097 127.937233,122.681656 127.204834,119.357117 
	C125.522461,113.106735 125.851082,112.657066 131.773285,111.945686 
	C132.484253,111.860291 133.133377,111.259903 133.905396,110.532158 
	C134.999054,111.393349 136.784134,112.573517 136.860962,113.856033 
	C137.182755,119.226959 136.992447,124.628571 136.994598,130.481659 
z"/>
<path fill="#F4F9EF" opacity="1.000000" stroke="none" 
	d="
M190.974884,149.599304 
	C190.260681,150.890900 189.713516,152.010452 188.817017,152.584320 
	C186.878250,153.825409 184.475037,155.976059 182.785980,155.570648 
	C180.521912,155.027237 177.860809,152.793579 176.946060,150.621857 
	C174.539780,144.908966 176.691132,139.118271 181.632843,136.832031 
	C182.004395,138.300201 182.161484,139.638718 181.989792,140.933670 
	C181.489914,144.703644 182.694290,146.588577 186.828934,146.025009 
	C189.051666,145.722046 191.330017,145.858734 190.974884,149.599304 
z"/>
<path fill="#FEFEFE" opacity="1.000000" stroke="none" 
	d="
M181.998474,213.044739 
	C182.479782,216.929184 181.095917,218.356461 177.558136,218.048111 
	C174.766220,217.804749 171.930069,217.884521 169.124512,218.030746 
	C165.957687,218.195816 163.878525,217.987900 163.843262,213.702545 
	C163.807541,209.360718 165.657913,208.707916 169.221786,208.955536 
	C172.350845,209.172989 175.563751,208.659058 178.623871,209.166367 
	C179.902802,209.378387 180.882462,211.395691 181.998474,213.044739 
z"/>
<path fill="#FCFCFC" opacity="1.000000" stroke="none" 
	d="
M218.012848,126.524963 
	C217.812286,127.236443 217.610855,127.507362 217.183243,127.898430 
	C215.969910,128.012939 214.973419,127.916985 213.997345,128.018143 
	C210.705688,128.359283 208.706146,127.713326 208.891586,123.609329 
	C209.036011,120.412804 209.578842,118.972687 213.254425,118.859261 
	C217.482788,118.728775 218.485825,120.476532 218.016220,124.111656 
	C217.932648,124.758621 218.009293,125.426285 218.012848,126.524963 
z"/>
<path fill="#FCFDFC" opacity="1.000000" stroke="none" 
	d="
M182.059204,161.077301 
	C187.252701,161.446899 191.427811,159.630386 194.728958,155.132187 
	C196.611771,155.387863 198.202667,155.822495 199.799744,156.629639 
	C194.937134,159.857712 189.843826,162.401291 185.282501,165.684052 
	C182.479233,167.701599 180.957199,166.854202 179.424164,164.436203 
	C180.488846,163.033981 181.274017,162.055649 182.059204,161.077301 
z"/>
<path fill="#FCFCFC" opacity="1.000000" stroke="none" 
	d="
M128.359680,200.815643 
	C127.181358,194.607559 132.010742,198.240219 134.280579,197.499329 
	C134.916992,196.013397 135.527405,194.588165 136.488464,193.080704 
	C136.397354,195.274353 136.674927,198.302277 135.307419,199.610321 
	C133.993561,200.867065 130.975876,200.342499 128.359680,200.815643 
z"/>
<path fill="#FCFDFC" opacity="1.000000" stroke="none" 
	d="
M183.269821,173.002548 
	C183.079453,171.770309 183.139832,170.533020 183.200211,169.295746 
	C184.053680,170.193741 184.907166,171.091721 185.669922,172.410629 
	C184.892990,172.886871 184.206772,172.942184 183.269821,173.002548 
z"/>
<path fill="#FCFDFC" opacity="1.000000" stroke="none" 
	d="
M191.091660,179.370209 
	C192.412476,179.718918 193.661789,180.439148 194.956207,181.495651 
	C193.674271,181.135193 192.347214,180.438461 191.091660,179.370209 
z"/>
<path fill="#FCFCFC" opacity="1.000000" stroke="none" 
	d="
M99.555916,154.980865 
	C102.123306,155.978760 104.253838,156.976456 106.791656,157.953110 
	C108.062248,158.742828 108.925545,159.553574 109.895485,161.121613 
	C110.342278,168.583237 110.682419,175.287598 111.022568,181.991959 
	C110.753868,182.188293 110.485161,182.384613 110.101547,182.806091 
	C105.422119,182.688049 100.858803,182.106232 96.292671,182.083359 
	C93.111465,182.067444 91.818672,181.184891 91.912590,177.821701 
	C91.998009,174.763077 92.197105,172.474731 96.138771,172.978958 
	C99.141319,173.363037 101.206413,172.909531 101.116470,168.901947 
	C101.038490,165.427246 100.437523,163.548004 96.451492,163.949982 
	C91.767868,164.422302 92.305344,160.580521 92.068687,157.827072 
	C91.768631,154.335815 94.577393,155.108139 96.623642,155.006805 
	C97.453842,154.965668 98.287155,154.987473 99.555916,154.980865 
z"/>
<path fill="#FDFDFD" opacity="1.000000" stroke="none" 
	d="
M73.989212,156.474319 
	C74.185577,155.764725 74.384666,155.495499 74.807640,155.106384 
	C76.027283,154.990662 77.041695,155.120972 78.015518,154.976913 
	C81.967720,154.392227 83.564323,155.975159 83.040352,159.967468 
	C82.804817,161.762085 82.882675,163.622604 83.024437,165.437134 
	C83.390755,170.126175 83.308624,174.187180 76.589600,173.211899 
	C75.939552,173.117538 74.103676,175.909073 74.150581,177.316559 
	C74.276436,181.092911 72.873177,182.100739 69.221954,182.123474 
	C65.398209,182.147308 64.700020,180.425171 64.974388,177.262833 
	C65.117302,175.615646 65.037804,173.944702 64.991386,172.286392 
	C64.860855,167.622406 63.959023,163.089767 71.668755,163.710175 
	C75.785622,164.041458 73.267357,159.289902 73.989212,156.474319 
z"/>
<path fill="#FEFEFE" opacity="1.000000" stroke="none" 
	d="
M66.000504,46.999695 
	C74.809059,46.999695 83.117676,46.999695 91.726677,46.999695 
	C91.726677,61.930698 91.726677,76.661346 91.726677,91.696625 
	C77.115051,91.696625 62.381413,91.696625 47.345577,91.696625 
	C47.345577,77.078262 47.345577,62.347748 47.345577,46.999695 
	C53.316063,46.999695 59.408321,46.999695 66.000504,46.999695 
M64.541245,56.002071 
	C61.769165,56.002071 58.997089,56.002071 56.275299,56.002071 
	C56.275299,65.285721 56.275299,74.021736 56.275299,82.723328 
	C65.287560,82.723328 74.023453,82.723328 82.722855,82.723328 
	C82.722855,73.710007 82.722855,64.973877 82.722855,56.002071 
	C76.811066,56.002071 71.171768,56.002071 64.541245,56.002071 
z"/>
<path fill="#FEFEFE" opacity="1.000000" stroke="none" 
	d="
M61.007122,254.000702 
	C56.205231,254.000702 51.901573,254.000702 47.319725,254.000702 
	C47.319725,239.002441 47.319725,224.279083 47.319725,209.276978 
	C62.049175,209.276978 76.774216,209.276978 91.768158,209.276978 
	C91.768158,224.000198 91.768158,238.727768 91.768158,254.000702 
	C81.694618,254.000702 71.599983,254.000702 61.007122,254.000702 
M82.940598,244.266418 
	C82.940598,235.646332 82.940598,227.026260 82.940598,218.207199 
	C73.874527,218.207199 65.137619,218.207199 56.195778,218.207199 
	C56.195778,227.129578 56.195778,235.865524 56.195778,244.941544 
	C65.012321,244.941544 73.631187,244.941544 82.940598,244.266418 
z"/>
<path fill="#FEFEFE" opacity="1.000000" stroke="none" 
	d="
M209.051468,66.000565 
	C209.051468,59.528725 209.051468,53.556770 209.051468,47.292191 
	C223.997070,47.292191 238.723938,47.292191 253.740662,47.292191 
	C253.740662,61.957039 253.740662,76.686241 253.740662,91.708969 
	C239.079117,91.708969 224.350739,91.708969 209.051468,91.708969 
	C209.051468,83.353340 209.051468,74.926895 209.051468,66.000565 
M218.002945,73.467285 
	C218.002945,76.573555 218.002945,79.679832 218.002945,82.725166 
	C227.294540,82.725166 236.030304,82.725166 244.719299,82.725166 
	C244.719299,73.703568 244.719299,64.967468 244.719299,56.279037 
	C235.702240,56.279037 226.966675,56.279037 218.002945,56.279037 
	C218.002945,61.864479 218.002945,67.171516 218.002945,73.467285 
z"/>
<path fill="#FFFFFF" opacity="1.000000" stroke="none" 
	d="
M121.950729,118.473152 
	C118.966179,118.884247 115.932655,118.935379 112.449692,118.914368 
	C112.956810,116.479317 112.459351,113.058502 116.502808,112.995644 
	C120.050880,112.940491 121.151405,115.302849 121.950729,118.473152 
z"/>
<path fill="#030502" opacity="1.000000" stroke="none" 
	d="
M111.433754,181.994492 
	C110.682419,175.287598 110.342278,168.583237 110.023819,161.401001 
	C112.729218,160.977417 115.412949,161.031738 118.564880,161.490097 
	C119.975304,162.595810 121.022041,164.005203 121.842743,163.884018 
	C127.082603,163.110199 128.714050,165.310425 128.162720,170.292618 
	C128.076569,171.071030 130.156845,172.825943 131.244705,172.833801 
	C133.121124,172.847351 136.564804,171.987030 136.633087,171.243713 
	C137.085632,166.317139 137.325089,161.226273 136.403946,156.424835 
	C136.186646,155.292160 131.268433,155.063675 128.515137,154.409180 
	C128.361191,154.372574 128.229095,154.243942 128.086823,154.158157 
	C128.139496,148.727066 128.192169,143.295990 128.250717,137.394196 
	C129.564774,136.942993 130.872940,136.962494 132.580688,136.935394 
	C140.840805,137.075119 140.841248,137.075119 140.843201,145.489777 
	C140.844086,149.270859 141.046249,153.066238 140.782150,156.828812 
	C140.543777,160.224854 142.029984,161.253784 145.552338,161.376740 
	C146.200760,162.295990 146.365158,163.117828 146.561035,163.125397 
	C152.025040,163.336624 157.492340,163.512177 162.958527,163.495728 
	C163.299637,163.494705 163.635910,161.882233 164.234222,160.742447 
	C164.683502,158.678680 164.872971,156.891968 165.493134,155.069611 
	C167.936951,154.994507 169.950089,154.955032 171.963242,154.915558 
	C175.080002,156.931992 178.196747,158.948410 181.686356,161.021057 
	C181.274017,162.055649 180.488846,163.033981 179.351318,164.092834 
	C174.658447,163.257675 172.207031,164.428177 172.988464,169.436600 
	C173.450272,172.396469 171.771896,173.084488 169.136261,173.039246 
	C162.666367,172.928207 156.191254,173.097961 149.722427,172.959213 
	C146.901169,172.898697 145.628159,173.969635 146.022232,176.738312 
	C146.603104,180.819534 145.098816,182.428238 140.843292,182.066971 
	C134.770798,181.551453 137.755280,186.445038 136.988556,189.531769 
	C134.338943,190.226624 131.687668,190.480911 128.547638,190.158966 
	C127.316322,186.466995 130.319000,180.794434 122.998039,182.169708 
	C119.280342,182.112137 115.562645,182.054581 111.433754,181.994492 
z"/>
<path fill="#FAFBF8" opacity="1.000000" stroke="none" 
	d="
M128.083862,154.454010 
	C128.229095,154.243942 128.361191,154.372574 128.515137,154.409180 
	C131.268433,155.063675 136.186646,155.292160 136.403946,156.424835 
	C137.325089,161.226273 137.085632,166.317139 136.633087,171.243713 
	C136.564804,171.987030 133.121124,172.847351 131.244705,172.833801 
	C130.156845,172.825943 128.076569,171.071030 128.162720,170.292618 
	C128.714050,165.310425 127.082603,163.110199 121.842743,163.884018 
	C121.022041,164.005203 119.975304,162.595810 119.013840,161.499237 
	C119.825775,160.924728 120.656960,160.745117 122.011726,160.354187 
	C122.679939,160.031219 122.824562,159.919556 122.969193,159.807922 
	C123.614281,159.523041 124.259369,159.238159 125.304123,158.564484 
	C125.918938,157.820053 126.134071,157.464432 126.349213,157.108810 
	C126.926445,156.322495 127.503670,155.536194 128.083862,154.454010 
z"/>
<path fill="#050A02" opacity="1.000000" stroke="none" 
	d="
M111.067909,146.456421 
	C113.074181,146.023468 115.082596,146.015656 117.736252,146.367340 
	C118.591728,149.505081 118.801971,152.283356 119.012215,155.061615 
	C113.146927,157.144135 110.961678,154.893433 111.067909,146.456421 
z"/>
<path fill="#E7F0DF" opacity="1.000000" stroke="none" 
	d="
M119.332695,155.198456 
	C118.801971,152.283356 118.591728,149.505081 118.168427,146.378235 
	C118.226364,145.820007 118.497353,145.610367 119.198357,145.358612 
	C120.720428,145.555878 121.812492,145.795227 122.904549,146.034592 
	C122.904549,146.034592 122.893578,146.532471 122.891869,147.015381 
	C122.935951,147.663849 122.981735,147.829376 123.027512,147.994904 
	C122.942879,148.743378 122.858246,149.491837 122.747902,150.864883 
	C122.734711,151.666321 122.747238,151.843170 122.759758,152.020035 
	C121.724228,153.125122 120.688705,154.230225 119.332695,155.198456 
z"/>
<path fill="#10190A" opacity="1.000000" stroke="none" 
	d="
M122.885139,145.592255 
	C121.812492,145.795227 120.720428,145.555878 119.330643,145.135925 
	C119.826813,142.313705 116.875130,138.638229 121.759430,137.113739 
	C122.284790,137.246872 122.631844,137.306412 122.631851,137.306412 
	C122.709808,139.920914 122.787766,142.535416 122.885139,145.592255 
z"/>
<path fill="#709D48" opacity="1.000000" stroke="none" 
	d="
M122.962250,137.044708 
	C122.631844,137.306412 122.284790,137.246872 122.170631,137.113480 
	C122.455956,135.306793 122.855438,133.633499 123.620987,131.901123 
	C123.755585,133.489014 123.524117,135.136002 122.962250,137.044708 
z"/>
<path fill="#709D48" opacity="1.000000" stroke="none" 
	d="
M123.192398,147.909805 
	C122.981735,147.829376 122.935951,147.663849 122.967545,147.252594 
	C123.210968,147.173676 123.393517,147.328522 123.529778,147.516846 
	C123.558754,147.556900 123.419189,147.718903 123.192398,147.909805 
z"/>
<path fill="#709D48" opacity="1.000000" stroke="none" 
	d="
M122.966141,151.951904 
	C122.747238,151.843170 122.734711,151.666321 122.809143,151.238113 
	C123.083183,151.179810 123.279633,151.365646 123.442535,151.577301 
	C123.458420,151.597946 123.267471,151.777817 122.966141,151.951904 
z"/>
<path fill="#709D48" opacity="1.000000" stroke="none" 
	d="
M126.037071,157.212219 
	C126.134071,157.464432 125.918938,157.820053 125.415009,158.309250 
	C125.325798,158.067093 125.525368,157.691360 126.037071,157.212219 
z"/>
<path fill="#709D48" opacity="1.000000" stroke="none" 
	d="
M122.840103,159.669006 
	C122.824562,159.919556 122.679939,160.031219 122.261345,160.154175 
	C122.228584,159.953690 122.469795,159.741898 122.840103,159.669006 
z"/>
<path fill="#FCFCFC" opacity="1.000000" stroke="none" 
	d="
M122.997894,182.551880 
	C130.319000,180.794434 127.316322,186.466995 128.171814,189.970306 
	C126.416725,195.121094 124.093964,191.793900 123.383392,190.097641 
	C122.513252,188.020447 123.062309,185.348724 122.997894,182.551880 
z"/>
<path fill="#FCFCFC" opacity="1.000000" stroke="none" 
	d="
M124.295654,201.395203 
	C125.188423,202.296585 125.781517,203.022308 126.374603,203.748032 
	C126.265060,204.081314 126.155518,204.414581 126.045967,204.747864 
	C124.770821,204.436844 123.495667,204.125824 122.220520,203.814789 
	C122.812332,202.949707 123.404144,202.084610 124.295654,201.395203 
z"/>
<path fill="#FCFCFC" opacity="1.000000" stroke="none" 
	d="
M118.994865,191.676392 
	C117.892471,191.682190 116.795242,191.335358 115.348099,190.910614 
	C116.096733,190.127182 117.195282,189.421677 118.293823,188.716171 
	C118.529228,189.585373 118.764626,190.454575 118.994865,191.676392 
z"/>
<path fill="#030303" opacity="1.000000" stroke="none" 
	d="
M208.972107,206.720032 
	C206.296326,207.657944 203.643890,208.152206 200.991425,208.646469 
	C200.707092,206.278229 199.785217,203.717941 200.415649,201.625275 
	C200.716980,200.624969 203.957474,200.167435 205.877609,200.136383 
	C206.897964,200.119904 208.357803,201.336121 208.859818,202.366074 
	C209.381851,203.437103 208.988495,204.954315 208.972107,206.720032 
z"/>
<path fill="#050A02" opacity="1.000000" stroke="none" 
	d="
M165.082443,137.062729 
	C167.055038,137.052048 169.027618,137.041351 171.416428,137.080063 
	C171.250854,139.822784 170.669052,142.516098 169.630981,145.605850 
	C167.803131,145.981094 166.431549,145.959915 165.039154,145.494614 
	C165.039688,142.387909 165.061066,139.725311 165.082443,137.062729 
z"/>
<path fill="#F4F9EF" opacity="1.000000" stroke="none" 
	d="
M165.059967,145.938736 
	C166.431549,145.959915 167.803131,145.981094 169.586243,145.997345 
	C170.606293,148.725891 171.214798,151.459396 171.893280,154.554230 
	C169.950089,154.955032 167.936951,154.994507 165.432877,154.613922 
	C164.981293,151.442154 165.020630,148.690445 165.059967,145.938736 
z"/>
<path fill="#040702" opacity="1.000000" stroke="none" 
	d="
M154.541595,136.846588 
	C154.948639,138.898422 154.597717,140.956726 155.124954,142.757980 
	C155.494553,144.020706 157.062256,144.932724 158.547668,146.445969 
	C158.973083,149.601364 158.945724,152.312180 158.463165,155.014069 
	C154.350937,155.048019 150.693924,155.090866 147.036896,155.133698 
	C146.961777,151.182297 146.841309,147.231110 146.821396,143.279434 
	C146.784760,136.011139 146.809418,136.011017 154.541595,136.846588 
z"/>
<path fill="#FAFBF8" opacity="1.000000" stroke="none" 
	d="
M147.000458,155.515518 
	C150.693924,155.090866 154.350937,155.048019 158.493530,155.435974 
	C159.070740,157.408478 159.162384,158.950180 159.255951,160.524429 
	C161.134155,160.721497 162.554291,160.870483 163.974426,161.019485 
	C163.635910,161.882233 163.299637,163.494705 162.958527,163.495728 
	C157.492340,163.512177 152.025040,163.336624 146.561035,163.125397 
	C146.365158,163.117828 146.200760,162.295990 145.977844,161.440216 
	C146.277344,159.316986 146.620667,157.607162 147.000458,155.515518 
z"/>
<path fill="#6E9C47" opacity="1.000000" stroke="none" 
	d="
M164.234222,160.742447 
	C162.554291,160.870483 161.134155,160.721497 159.255951,160.524429 
	C159.162384,158.950180 159.070740,157.408478 158.948730,155.444885 
	C158.945724,152.312180 158.973083,149.601364 158.961182,146.440430 
	C158.921921,141.390930 158.921921,136.791550 158.921921,132.100311 
	C163.451279,130.351379 165.388275,131.630157 165.020599,136.647110 
	C165.061066,139.725311 165.039688,142.387909 165.039154,145.494614 
	C165.020630,148.690445 164.981293,151.442154 165.002197,154.649551 
	C164.872971,156.891968 164.683502,158.678680 164.234222,160.742447 
z"/>
<path fill="#000000" opacity="1.000000" stroke="none" 
	d="
M65.036858,56.002071 
	C71.171768,56.002071 76.811066,56.002071 82.722855,56.002071 
	C82.722855,64.973877 82.722855,73.710007 82.722855,82.723328 
	C74.023453,82.723328 65.287560,82.723328 56.275299,82.723328 
	C56.275299,74.021736 56.275299,65.285721 56.275299,56.002071 
	C58.997089,56.002071 61.769165,56.002071 65.036858,56.002071 
z"/>
<path fill="#000000" opacity="1.000000" stroke="none" 
	d="
M82.595322,244.603973 
	C73.631187,244.941544 65.012321,244.941544 56.195778,244.941544 
	C56.195778,235.865524 56.195778,227.129578 56.195778,218.207199 
	C65.137619,218.207199 73.874527,218.207199 82.940598,218.207199 
	C82.940598,227.026260 82.940598,235.646332 82.595322,244.603973 
z"/>
<path fill="#000000" opacity="1.000000" stroke="none" 
	d="
M218.002945,72.972923 
	C218.002945,67.171516 218.002945,61.864479 218.002945,56.279037 
	C226.966675,56.279037 235.702240,56.279037 244.719299,56.279037 
	C244.719299,64.967468 244.719299,73.703568 244.719299,82.725166 
	C236.030304,82.725166 227.294540,82.725166 218.002945,82.725166 
	C218.002945,79.679832 218.002945,76.573555 218.002945,72.972923 
z"/>
</svg>